<?xml version="1.0" encoding="utf-8"?>
<!-- Generator: Adobe Illustrator 26.1.0, SVG Export Plug-In . SVG Version: 6.00 Build 0)  -->
<svg version="1.1" id="Layer_1" xmlns="http://www.w3.org/2000/svg" xmlns:xlink="http://www.w3.org/1999/xlink" x="0px" y="0px"
	 viewBox="0 0 317.5 221.1" style="enable-background:new 0 0 317.5 221.1;" xml:space="preserve">
<style type="text/css">
	.st0{fill:#29AAE1;}
	.st1{fill:#96D5F0;}
	.st2{fill:#6DC5EB;}
	.st3{fill:#BFE6F5;}
	.st4{fill:#6CC4EA;}
	.st5{fill:#94D4EF;}
	.st6{fill:#44B5E5;}
	.st7{fill:#D3EDF8;}
	.st8{fill:#BEE5F5;}
	.st9{fill:#41B4E4;}
	.st10{fill:#2DACE2;}
	.st11{fill:#6AC3EA;}
	.st12{fill:#2AABE1;}
	.st13{fill:#D4EDF8;}
	.st14{fill:#96D5EF;}
	.st15{fill:#43B5E5;}
	.st16{fill:#E8F5FB;}
</style>
<path class="st0" d="M119,171.2c4.2,0,8,0,12.5,0c-2.4,8.7-4.7,17.3-7,25.8c24.5,0,48.6,1.4,72.5-0.3c41.4-3,74.8-20.5,92.2-60.5
	c18.6-42.8,2.9-84.7-36.1-98.9c-13-4.7-26.6-5.9-40.3-6.2c-9.1-0.2-18.3,0-28.1,0c1-3.8,1.9-7.1,2.9-10.7
	c24.8,0.1,49.3-1.7,73.1,6.4c43.7,14.9,62.3,60.4,43.5,108.7c-17.2,44-52.1,65.2-97.1,71.2c-32.3,4.3-64.9,1.1-98.3,2.1
	C112.4,195.8,115.7,183.5,119,171.2z"/>
<path class="st0" d="M205.9,58.2c1.2-4.3,2.2-7.8,3.3-11.8c23.6,0.7,47.9,1.3,62.1,23.6c15.6,24.6,10.2,50.3-4,73.7
	c-17.6,29.1-46.7,38-78.5,40.1c-14.5,1-29.2,0.2-44.5,0.2c6-21.3,11.8-42,17.6-62.8c4.4,0,8.3,0,12.9,0
	c-4.5,16.6-8.9,32.9-13.3,49.2c36.4,3.3,76.4-1.7,96.5-35c7.9-13.2,10.8-27.7,8.4-42.8c-3.4-21.3-19.6-32.8-47.2-34.4
	C215.1,58,210.9,58.2,205.9,58.2z"/>
<path class="st1" d="M87.4,70.5c5.2,0,9.6,0,14.8,0c-1.3,4.6-2.5,8.6-3.7,13c-4.8,0-9.2,0-14.5,0C85.1,79.2,86.2,75,87.4,70.5z"/>
<path class="st2" d="M116.3,70.6c4.9,0,9.5,0,14.7,0c-1.3,4.6-2.5,8.6-3.6,12.8c-4.9,0-9.5,0-14.6,0C114,78.9,115.1,74.8,116.3,70.6
	z"/>
<path class="st3" d="M68.7,83.5c-5.2,0-9.6,0-14.5,0c1.2-4.5,2.2-8.5,3.3-12.9c4.6,0,9.1,0,14.6,0C70.9,75.1,69.8,79.3,68.7,83.5z"
	/>
<path class="st4" d="M123.5,96.2c-1.1,4.1-2.1,7.9-3.2,12.1c-4.7,0-9.4,0-14.8,0c1.2-4.3,2.3-8.2,3.4-12.1
	C113.9,96.2,118.4,96.2,123.5,96.2z"/>
<path class="st5" d="M80.5,96.3c5,0,9.4,0,14.7,0c-1.2,4.4-2.2,8.3-3.3,12.2c-4.9,0-9.3,0-14.6,0C78.5,104.2,79.4,100.5,80.5,96.3z"
	/>
<path class="st4" d="M99.4,133.4c1.3-4.6,2.4-8.3,3.5-12.3c4.8,0,9.4,0,14.5,0c-1.1,4.2-2.2,8.1-3.3,12.3
	C109.3,133.4,104.8,133.4,99.4,133.4z"/>
<path class="st6" d="M159.6,70.7c-1.2,4.4-2.2,8.3-3.4,12.6c-4.4,0-8.6,0-13.4,0c1.1-4.2,2.2-8.3,3.3-12.6
	C150.6,70.7,154.8,70.7,159.6,70.7z"/>
<path class="st7" d="M49.7,46.2c-1.2,4.2-2.3,7.8-3.3,11.5c-4.8,0-9.2,0-14.4,0c1-4.1,2-7.8,3-11.5C39.9,46.2,44.4,46.2,49.7,46.2z"
	/>
<path class="st8" d="M64.8,46.2c5.1,0,9.4,0,14.5,0c-1.1,4-2,7.7-3.1,11.6c-4.8,0-9.4,0-14.7,0C62.7,53.7,63.7,50.1,64.8,46.2z"/>
<path class="st5" d="M105.3,57.8c-4.9,0-9.5,0-14.7,0c1.2-4.2,2.3-7.9,3.3-11.7c4.8,0,9.1,0,14.5,0
	C107.4,50.2,106.4,53.9,105.3,57.8z"/>
<path class="st9" d="M148.3,57.8c1.2-4.2,2.2-7.7,3.2-11.3c4.9,0,9.4,0,14.6,0c-1.1,4-2,7.6-3,11.3
	C158.2,57.8,153.6,57.8,148.3,57.8z"/>
<path class="st10" d="M180.2,46.6c5,0,9.5,0,14.7,0c-1,3.8-2,7.4-3,11.2c-4.8,0-9.3,0-14.6,0C178.3,54.1,179.2,50.5,180.2,46.6z"/>
<path class="st11" d="M119.6,57.9c1.1-4.2,2-7.8,3-11.4c4.9,0,9.4,0,14.7,0c-1.1,4.2-2.1,7.7-3.1,11.4
	C129.3,57.9,124.9,57.9,119.6,57.9z"/>
<path class="st10" d="M176,70.6c4.3,0,7.9,0,12.3,0c-1.2,4.5-2.2,8.5-3.3,12.7c-4.2,0-8,0-12.5,0C173.8,79,174.9,75,176,70.6z"/>
<path class="st10" d="M139.3,96c4.6,0,8.5,0,13.2,0c-1.1,4.2-2.1,8.1-3.2,12.3c-4.3,0-8.4,0-13.1,0
	C137.2,104.1,138.2,100.3,139.3,96z"/>
<path class="st12" d="M132.5,121.1c4.6,0,8.5,0,13,0c-1.1,4.2-2.2,8.1-3.3,12.2c-4.2,0-8.1,0-12.8,0
	C130.5,129.2,131.4,125.3,132.5,121.1z"/>
<path class="st10" d="M125.8,146.1c4.3,0,8.2,0,12.7,0c-1.2,4.3-2.2,8.2-3.3,12.3c-4.2,0-8.1,0-12.7,0
	C123.7,154.1,124.8,150.1,125.8,146.1z"/>
<path class="st10" d="M178.2,108.4c-4.2,0-8.1,0-12.7,0c1.2-4.3,2.3-8.2,3.4-12.3c4.2,0,8.1,0,12.6,0
	C180.4,100.3,179.3,104.3,178.2,108.4z"/>
<path class="st13" d="M55.2,30.6c-5.2,0-9.6,0-14.9,0c1.1-3.7,2.1-6.8,3.1-10.1c4.8,0,9.3,0,14.5,0C56.9,24.1,56.1,27.2,55.2,30.6z"
	/>
<path class="st3" d="M84.3,30.7c-5.1,0-9.5,0-14.6,0c0.9-3.6,1.7-6.7,2.6-10.2c4.8,0,9.3,0,14.5,0C86,24,85.2,27.3,84.3,30.7z"/>
<path class="st14" d="M113,30.8c-4.9,0-9.3,0-14.6,0c1-3.7,1.9-6.9,2.8-10.3c5.1,0,9.6,0,14.7,0C114.9,24.1,114,27.2,113,30.8z"/>
<path class="st2" d="M144.7,20.6c-1.1,4-2,7.1-3,10.3c-4.8,0-9.3,0-14.5,0c1-3.7,1.9-7,2.8-10.3C135,20.6,139.4,20.6,144.7,20.6z"/>
<path class="st15" d="M173.3,20.7c-0.9,3.6-1.7,6.8-2.5,10.2c-4.8,0-9.4,0-14.6,0c0.8-3.4,1.6-6.7,2.5-10.2
	C163.6,20.7,168.1,20.7,173.3,20.7z"/>
<path class="st16" d="M26.7,21.2c-1,3.5-1.8,6.3-2.7,9.4c-4.7,0-9.2,0-14.7,0c1.1-3.5,2-6.4,2.9-9.4C17.1,21.2,21.5,21.2,26.7,21.2z
	"/>
</svg>
