<?xml version="1.0" encoding="utf-8"?>
<!-- Generator: Adobe Illustrator 26.1.0, SVG Export Plug-In . SVG Version: 6.00 Build 0)  -->
<svg version="1.1" id="Layer_1" xmlns="http://www.w3.org/2000/svg" xmlns:xlink="http://www.w3.org/1999/xlink" x="0px" y="0px"
	 viewBox="0 0 829.5 365.5" style="enable-background:new 0 0 829.5 365.5;" xml:space="preserve">
<style type="text/css">
	.st0{fill:#FFFFFF;}
</style>
<g>
	<g>
		<path class="st0" d="M673.1,209.3c-10.8,43-20.1,80.1-29.5,117.7c-8.7,0-16.8,0-26.2,0c12.6-50.7,25-100.6,37.6-150.9
			c15.8,0,30.8,0,46.8,0c2.7,30.1,5.3,60.1,8.2,92.6c19-32.4,36.6-62.4,54.3-92.5c15.3,0,30.3,0,46.6,0
			c-12.7,50.8-25.1,100.7-37.6,150.9c-10.6,0-20.4,0-31.5,0c9.2-37.3,18.1-73.7,27.1-110.1c-0.6-0.3-1.2-0.6-1.8-0.9
			c-21.8,37.1-43.7,74.3-65.4,111.1c-6.2,0-11.6,0-18.1,0C680.2,289.7,676.9,252.5,673.1,209.3z"/>
		<path class="st0" d="M183,266.9c6.6,0,12.6,0,19.7,0c-3.7,13.7-7.3,27.1-11,40.6c38.4,0,76.3,2.2,113.9-0.5
			c65.1-4.7,117.5-32.2,144.7-95c29.2-67.3,4.6-133-56.7-155.3c-20.4-7.4-41.8-9.2-63.3-9.7c-14.4-0.3-28.7-0.1-44-0.1
			c1.6-6,3-11.1,4.6-16.8c39,0.1,77.5-2.6,114.7,10c68.6,23.3,97.9,94.9,68.3,170.6c-27,69.1-81.7,102.4-152.4,111.8
			c-50.7,6.7-101.8,1.8-154.2,3.3C172.6,305.5,177.8,286.3,183,266.9z"/>
		<path class="st0" d="M319.4,89.5c1.9-6.7,3.4-12.2,5.1-18.5c37.1,1.1,75.2,2,97.4,37c24.6,38.6,16,78.9-6.3,115.7
			c-27.6,45.7-73.4,59.7-123.2,63c-22.8,1.5-45.9,0.3-69.9,0.3c9.4-33.4,18.5-65.9,27.6-98.6c6.8,0,13,0,20.2,0
			c-7,26.1-13.9,51.6-20.8,77.3c57.1,5.2,120-2.6,151.5-54.9c12.5-20.7,16.9-43.5,13.2-67.1c-5.3-33.5-30.8-51.6-74.1-54
			C333.8,89.1,327.2,89.5,319.4,89.5z"/>
		<path class="st0" d="M133.3,108.9c8.2,0,15.1,0,23.3,0c-2.1,7.2-3.9,13.6-5.8,20.3c-7.5,0-14.4,0-22.7,0
			C129.7,122.4,131.4,115.9,133.3,108.9z"/>
		<path class="st0" d="M178.7,109c7.8,0,14.9,0,23,0c-2,7.1-3.8,13.5-5.7,20.1c-7.7,0-14.9,0-23,0C175.1,122,176.9,115.6,178.7,109z
			"/>
		<path class="st0" d="M103.9,129.2c-8.2,0-15.1,0-22.8,0c1.8-7.1,3.4-13.3,5.2-20.2c7.2,0,14.3,0,22.9,0
			C107.4,116,105.7,122.6,103.9,129.2z"/>
		<path class="st0" d="M190,149.1c-1.7,6.5-3.3,12.5-5.1,19.1c-7.4,0-14.7,0-23.2,0c1.9-6.8,3.6-12.9,5.3-19.1
			C174.9,149.1,182,149.1,190,149.1z"/>
		<path class="st0" d="M122.6,149.3c7.8,0,14.8,0,23,0c-1.9,6.9-3.5,13-5.2,19.2c-7.7,0-14.6,0-22.9,0
			C119.3,161.8,120.9,155.9,122.6,149.3z"/>
		<path class="st0" d="M152.2,207.6c2.1-7.2,3.8-13.1,5.5-19.3c7.5,0,14.7,0,22.8,0c-1.8,6.7-3.4,12.8-5.2,19.3
			C167.7,207.6,160.6,207.6,152.2,207.6z"/>
		<path class="st0" d="M246.7,109.1c-1.8,6.9-3.5,13-5.3,19.8c-6.8,0-13.4,0-21.1,0c1.8-6.6,3.4-13,5.3-19.8
			C232.5,109.1,239.1,109.1,246.7,109.1z"/>
		<path class="st0" d="M74.1,70.7c-1.9,6.6-3.5,12.2-5.2,18.1c-7.5,0-14.5,0-22.6,0c1.6-6.4,3.1-12.2,4.7-18.1
			C58.8,70.7,65.8,70.7,74.1,70.7z"/>
		<path class="st0" d="M97.9,70.6c8,0,14.7,0,22.8,0c-1.7,6.2-3.2,12-4.8,18.2c-7.6,0-14.7,0-23.1,0C94.6,82.4,96.2,76.8,97.9,70.6z
			"/>
		<path class="st0" d="M161.5,88.9c-7.7,0-14.9,0-23,0c1.9-6.5,3.5-12.4,5.2-18.3c7.5,0,14.2,0,22.7,0
			C164.7,76.9,163.1,82.8,161.5,88.9z"/>
		<path class="st0" d="M229,88.8c1.9-6.6,3.4-12.1,5-17.8c7.6,0,14.8,0,22.9,0c-1.7,6.2-3.2,11.9-4.7,17.8
			C244.4,88.8,237.3,88.8,229,88.8z"/>
		<path class="st0" d="M279,71.3c7.9,0,14.8,0,23.1,0c-1.6,6-3.2,11.6-4.8,17.5c-7.5,0-14.7,0-22.9,0C276,83,277.4,77.5,279,71.3z"
			/>
		<path class="st0" d="M183.9,89c1.7-6.6,3.2-12.2,4.7-18c7.7,0,14.8,0,23,0c-1.8,6.5-3.3,12.1-4.8,18C199.1,89,192.2,89,183.9,89z"
			/>
		<path class="st0" d="M272.5,109c6.7,0,12.4,0,19.4,0c-1.8,7-3.5,13.4-5.2,20c-6.6,0-12.5,0-19.6,0
			C268.9,122.2,270.6,115.9,272.5,109z"/>
		<path class="st0" d="M214.8,148.9c7.2,0,13.4,0,20.7,0c-1.8,6.6-3.4,12.7-5.1,19.2c-6.7,0-13.1,0-20.6,0
			C211.5,161.6,213.1,155.5,214.8,148.9z"/>
		<path class="st0" d="M204.1,188.2c7.2,0,13.4,0,20.4,0c-1.8,6.6-3.4,12.7-5.2,19.2c-6.5,0-12.7,0-20.1,0
			C201,201,202.5,194.9,204.1,188.2z"/>
		<path class="st0" d="M193.7,227.5c6.7,0,12.9,0,20,0c-1.8,6.7-3.5,12.8-5.2,19.3c-6.7,0-12.8,0-20,0
			C190.3,240,192,233.8,193.7,227.5z"/>
		<path class="st0" d="M275.9,168.3c-6.6,0-12.7,0-19.9,0c1.9-6.8,3.5-12.9,5.3-19.3c6.5,0,12.7,0,19.8,0
			C279.3,155.7,277.6,161.8,275.9,168.3z"/>
		<path class="st0" d="M82.8,46.2c-8.1,0-15,0-23.4,0c1.8-5.8,3.3-10.7,4.9-15.9c7.6,0,14.7,0,22.7,0C85.5,36,84.2,40.9,82.8,46.2z"
			/>
		<path class="st0" d="M128.5,46.4c-8,0-14.9,0-22.9,0c1.4-5.6,2.7-10.5,4.1-16c7.5,0,14.6,0,22.8,0C131.1,35.9,129.9,41,128.5,46.4
			z"/>
		<path class="st0" d="M173.5,46.5c-7.7,0-14.6,0-22.9,0c1.6-5.8,2.9-10.9,4.3-16.1c7.9,0,15,0,23.1,0
			C176.5,36,175.1,40.9,173.5,46.5z"/>
		<path class="st0" d="M223.3,30.4c-1.8,6.2-3.2,11.2-4.6,16.2c-7.6,0-14.6,0-22.7,0c1.6-5.8,3-11.1,4.4-16.2
			C208.1,30.4,215,30.4,223.3,30.4z"/>
		<path class="st0" d="M268.2,30.6c-1.4,5.7-2.6,10.6-3.9,16c-7.5,0-14.7,0-22.9,0c1.3-5.4,2.5-10.5,3.9-16
			C252.9,30.6,260,30.6,268.2,30.6z"/>
		<path class="st0" d="M38,31.5c-1.6,5.5-2.8,9.9-4.2,14.7c-7.4,0-14.5,0-23,0c1.7-5.5,3.1-10,4.6-14.7C22.9,31.5,29.9,31.5,38,31.5
			z"/>
		<path class="st0" d="M628.1,203.3c-3.1-16.7-16.9-23.2-32-25.8c-24.3-4.1-48.9-1.1-73.7-2c-12.6,50.7-25,100.6-37.7,151.5
			c11,0,20.6,0,31.3,0c4.8-19,9.5-37.6,14.3-56.4c9.6,0,18.8-0.2,27.9,0c18.5,0.4,36.1-3.1,50.8-14.9
			C625.9,242.3,631.9,224,628.1,203.3z M578.9,241.5c-13.4,4.2-27.3,1.1-41.8,2c3.4-13.7,6.6-26.6,9.8-39.6c9.4,0,18.3-0.3,27.1,0.1
			c8.7,0.4,19.6-0.9,21.4,10.8C597.3,227.2,591.7,237.5,578.9,241.5z"/>
	</g>
</g>
</svg>
