<?xml version="1.0" encoding="utf-8"?>
<!-- Generator: Adobe Illustrator 26.1.0, SVG Export Plug-In . SVG Version: 6.00 Build 0)  -->
<svg version="1.1" id="Layer_1" xmlns="http://www.w3.org/2000/svg" xmlns:xlink="http://www.w3.org/1999/xlink" x="0px" y="0px"
	 viewBox="0 0 317.5 221.1" style="enable-background:new 0 0 317.5 221.1;" xml:space="preserve">
<style type="text/css">
	.st0{fill:#1B1464;}
	.st1{fill:#FEFEFE;}
</style>
<path class="st0" d="M123.3,133.8c-6.9,27.4-12.8,51-18.8,75c-5.5,0-10.7,0-16.7,0c8-32.3,16-64.1,23.9-96.1c10.1,0,19.6,0,29.8,0
	c1.7,19.2,3.4,38.3,5.2,59c12.1-20.6,23.3-39.8,34.6-58.9c9.8,0,19.3,0,29.7,0c-8.1,32.4-16,64.2-23.9,96.1c-6.8,0-13,0-20.1,0
	c5.8-23.7,11.5-46.9,17.3-70.1c-0.4-0.2-0.8-0.4-1.2-0.5c-13.9,23.7-27.8,47.3-41.6,70.8c-3.9,0-7.4,0-11.5,0
	C127.9,185,125.8,161.3,123.3,133.8z"/>
<path class="st0" d="M23.4,208.8c-6.9,0-12.9,0-20,0c8.1-32.4,16-64.2,24-96.5c15.8,0.6,31.4-1.4,46.9,1.3
	c9.6,1.6,18.4,5.8,20.4,16.4c2.4,13.2-1.4,24.9-12.1,33.4c-9.4,7.5-20.6,9.7-32.4,9.5c-5.8-0.1-11.6,0-17.8,0
	C29.4,184.9,26.4,196.7,23.4,208.8z"/>
<path class="st1" d="M36.8,155.5c2.2-8.8,4.2-16.9,6.2-25.2c6,0,11.6-0.2,17.3,0.1c5.5,0.2,12.5-0.6,13.6,6.9
	c1.2,8-2.4,14.5-10.5,17.1C54.8,156.9,45.9,155,36.8,155.5z"/>
</svg>
