<?xml version="1.0" encoding="utf-8"?>
<!-- Generator: Adobe Illustrator 26.0.2, SVG Export Plug-In . SVG Version: 6.00 Build 0)  -->
<svg version="1.1" id="Layer_1" xmlns="http://www.w3.org/2000/svg" xmlns:xlink="http://www.w3.org/1999/xlink" x="0px" y="0px"
	 viewBox="0 0 1046.95 417.88" style="enable-background:new 0 0 1046.95 417.88;" xml:space="preserve">
<style type="text/css">
	.st0{fill:#01AEEE;}
	.st1{fill:#1C1564;}
	.st2{fill:#EC1C24;}
</style>
<g>
	<path class="st0" d="M151.7,16.3c2.61,6.41,5.12,12.42,7.51,18.46c5.07,12.81,9.84,25.72,12.65,39.27
		c6.65,32,0.84,61.45-17.73,88.42c-8.84,12.84-19,24.54-29.58,35.92c-5.27,5.66-10.46,11.38-15.46,17.29
		c-11.24,13.31-17.75,28.58-19.81,45.87c-2.25,18.93,0.12,37.09,8.8,54.18c12.92,25.45,33.76,41.12,60.96,48.79
		c5.72,1.61,11.54,2.69,17.46,3.16c1.2,0.09,1.41,0.53,1.39,1.58c-0.06,2.6-0.14,5.21,0.02,7.8c0.11,1.75-0.6,1.93-2.07,1.79
		c-11.83-1.12-23.46-3.3-34.84-6.73c-16.98-5.12-32.83-12.5-46.72-23.69c-22.21-17.89-36.35-40.64-43.03-68.5
		c-6.05-25.24-3.27-49.54,4.75-73.67c6.08-18.3,16.25-34.35,27.66-49.7c9.24-12.42,19.79-23.75,29.86-35.48
		c11.77-13.72,23.27-27.62,32.53-43.22c3.75-6.32,6.92-12.89,8.93-19.99c2.66-9.45,1.89-18.85-0.2-28.26
		c-0.82-3.71-1.89-7.34-3.06-10.95C151.52,18,151.16,17.4,151.7,16.3z"/>
	<path class="st0" d="M215.63,16.54c-0.89,2.98-1.72,5.63-2.46,8.3c-1.99,7.29-3.32,14.67-3.06,22.27
		c0.27,8.01,2.73,15.44,6.22,22.54c6.44,13.11,15.04,24.81,24.15,36.15c11.23,13.98,23.47,27.11,34.87,40.94
		c12.92,15.68,24.46,32.29,32.26,51.19c7.49,18.17,11.56,37.08,11.34,56.79c-0.17,15.32-3.97,29.96-9.44,44.1
		c-11.08,28.65-31.37,49.11-58.3,63.14c-17.11,8.92-35.52,13.86-54.64,16.2c-1.92,0.23-3.85,0.38-5.75,0.67
		c-1.42,0.22-2.05-0.08-1.95-1.71c0.14-2.52,0.11-5.07,0.01-7.6c-0.05-1.33,0.3-1.74,1.71-1.89c23.38-2.56,44.06-11.22,60.83-27.98
		c15.48-15.47,24.48-34.23,26.39-56.11c1.69-19.26-1.16-37.74-10.9-54.75c-5.23-9.14-12.24-16.94-19.34-24.63
		c-10.85-11.75-21.83-23.39-31.2-36.41c-9.48-13.18-17.25-27.2-21.17-43.1c-2.99-12.16-3.48-24.49-2.36-36.92
		c1.71-18.93,8.18-36.53,15.12-54c2.09-5.25,4.27-10.47,6.43-15.7C214.58,17.57,214.59,16.96,215.63,16.54z"/>
	<path class="st0" d="M364.64,379.02c-12.53,0-25.05-0.02-37.58,0.03c-1.51,0.01-1.99-0.2-1.42-1.86
		c13.05-38.19,26.06-76.39,39.04-114.61c0.42-1.23,1.04-1.58,2.3-1.58c23.12,0.04,46.24-0.02,69.37,0.05
		c7.89,0.02,15.69,0.85,23.01,4.18c10.18,4.64,15.38,12.75,16.43,23.68c1.15,11.97-1.96,23.25-6.01,34.31
		c-5.03,13.73-12.12,26.2-22.83,36.38c-11.71,11.14-25.7,17.42-41.74,18.9c-12.56,1.16-25.17,0.29-37.76,0.5
		C366.5,379.04,365.57,379.02,364.64,379.02z M383.73,353.82c0-0.01,0-0.03,0-0.04c4.53,0,9.06,0.11,13.59-0.02
		c9.18-0.28,17.22-3.56,23.59-10.18c10.68-11.1,16.03-24.72,17.06-39.89c0.69-10.14-5.42-16.5-15.59-17.16
		c-10.45-0.68-20.91-0.12-31.37-0.31c-1.37-0.02-1.4,0.93-1.69,1.78c-7.28,21.33-14.55,42.66-21.86,63.97
		c-0.48,1.41-0.48,1.94,1.28,1.9C373.74,353.75,378.73,353.82,383.73,353.82z"/>
	<path class="st1" d="M183.51,120.3c0.58,2.15,1.12,4.31,1.73,6.44c5.6,19.48,15.39,36.7,28.1,52.4
		c9.74,12.03,19.97,23.58,30.98,34.48c14.6,14.46,22.9,32.06,24.69,52.53c3.79,43.37-23.73,81.53-65.98,91.77
		c-46.91,11.37-95.23-19.61-104.02-67.03c-5.51-29.72,2.5-55.64,23.54-77.36c13.23-13.66,26.09-27.6,37.23-43.05
		C170.76,155.25,178.65,138.59,183.51,120.3z M183.36,204.09c-38.75,0-70.3,31.33-70.34,69.83c-0.04,38.98,31.37,70.51,70.28,70.57
		c38.8,0.05,70.45-31.49,70.45-70.21C253.75,235.47,222.28,204.09,183.36,204.09z"/>
	<path class="st0" d="M575.33,333.75c2.5-8.26,4.93-16.2,7.3-24.17c0.39-1.31,1.32-1.04,2.21-1.04c18.59-0.01,37.19,0,55.78,0
		c4.67,0,4.66,0,3.32,4.41c-6.6,21.63-13.2,43.25-19.74,64.9c-0.45,1.48-1.04,1.92-2.57,1.91c-22.99-0.06-45.99-0.04-68.98-0.04
		c-6.09,0-12.09-0.66-17.95-2.38c-14.11-4.15-22.39-14.77-22.89-29.49c-0.51-14.93,3.69-28.82,9.81-42.19
		c5.84-12.76,14.1-23.65,25.77-31.71c10.09-6.97,21.33-10.7,33.49-11.87c3.66-0.35,7.32-0.37,10.98-0.37
		c21.86-0.01,43.72,0.02,65.58-0.04c1.8,0,2.09,0.36,1.55,2.07c-2.25,7.1-4.41,14.23-6.5,21.38c-0.41,1.4-1.03,1.83-2.48,1.83
		c-19.33-0.05-38.66,0.12-57.98-0.07c-18.72-0.18-31.43,8.5-38.54,25.54c-3.56,8.53-6.54,17.3-8.26,26.42
		c-1.36,7.2,1.42,11.65,8.42,13.88c4.23,1.35,8.61,1.74,13.02,1.77c10,0.06,19.99,0.02,29.99,0.05c1.12,0,1.76-0.16,2.13-1.44
		c1.72-5.94,3.53-11.85,5.41-17.75c0.44-1.39,0.13-1.64-1.24-1.63c-8.4,0.05-16.8,0.03-25.19,0.03
		C577.03,333.75,576.3,333.75,575.33,333.75z"/>
	<path class="st0" d="M861.82,337.06c-5.6,0-11.2,0.05-16.79-0.03c-1.61-0.02-2.41,0.35-2.96,2.04
		c-4.02,12.47-8.18,24.89-12.25,37.35c-0.4,1.23-0.84,1.8-2.29,1.79c-9.4-0.09-18.8-0.09-28.19-0.05c-1.44,0.01-1.82-0.21-1.31-1.75
		c8.23-24.81,16.19-49.7,24.63-74.44c6.88-20.17,21.84-31.87,41.85-37.33c14.51-3.96,29.12-3.82,43.4,1.54
		c4.97,1.86,9.44,4.62,13.27,8.35c6.16,5.98,8.25,13.21,5.77,21.37c-3.57,11.7-7.53,23.28-11.35,34.91
		c-5,15.23-10.05,30.44-15.03,45.68c-0.46,1.41-1.04,1.98-2.62,1.96c-9.46-0.13-18.93-0.18-28.39-0.16c-1.63,0-1.87-0.35-1.36-1.86
		c4.14-12.36,8.18-24.75,12.33-37.11c0.56-1.68,0.33-2.14-1.5-2.11c-5.73,0.1-11.46,0.04-17.2,0.04
		C861.82,337.16,861.82,337.11,861.82,337.06z M870.01,315.66c0,0.02,0,0.03,0,0.05c6.13,0,12.25,0.01,18.38-0.01
		c0.73,0,1.55,0.3,1.91-0.87c1.77-5.84,4.21-11.5,5.32-17.53c1.22-6.59-1.3-10.28-7.86-11.81c-2.75-0.64-5.54-0.66-8.34-0.61
		c-10.91,0.22-18.89,5.09-23.8,14.93c-2.33,4.67-3.65,9.69-5.38,14.57c-0.54,1.52,0.57,1.27,1.39,1.27
		C857.76,315.66,863.88,315.66,870.01,315.66z"/>
	<path class="st1" d="M397.46,161.78c-2.53,2.02-4.61,3.7-6.25,5.82c-1.36,1.75-2.49,3.62-3.16,5.74c-0.2,0.63-0.8,1.7-0.12,1.86
		c1,0.23,2.3,0.76,3.21-0.63c5.89-9.05,14.67-12.49,25.05-12.67c2.8-0.05,5.6,0.2,8.34,0.78c5.9,1.25,11.14,3.6,14.65,9.22
		c1.04-3.14,2.05-5.98,2.9-8.87c0.31-1.05,0.79-1.33,1.82-1.31c4.4,0.05,8.8-0.03,13.2,0.05c1.15,0.02,1.78-0.32,1.91-1.44
		c0.46-3.88,3.05-5.45,6.42-6.83c8.66-3.55,17.16-7.48,26.04-11.4c-2.17,6.67-4.25,13.08-6.38,19.66c4.73,0,9.19-0.02,13.65,0.02
		c0.94,0.01,1.36-0.39,1.47-1.23c0.52-4.07,3.22-5.78,6.79-7.23c8.55-3.46,16.92-7.35,25.68-11.2c-1.49,4.61-2.88,8.95-4.28,13.29
		c-0.53,1.64-1,3.31-1.63,4.92c-0.47,1.2-0.15,1.48,1.06,1.47c3.6-0.06,7.2,0.04,10.8-0.05c1.41-0.03,1.33,0.56,1.01,1.54
		c-1.16,3.54-2.34,7.07-3.41,10.63c-0.3,0.99-0.79,1.2-1.72,1.19c-3.6-0.04-7.2,0.02-10.8-0.04c-1.13-0.02-1.77,0.21-2.17,1.44
		c-2.85,8.86-5.84,17.67-8.68,26.53c-1.91,5.97-0.36,8.18,5.86,8.62c0.93,0.07,1.86,0.01,2.96,0.01c-0.96,2.96-1.88,5.72-2.74,8.5
		c-0.26,0.85-0.83,0.89-1.54,0.89c-7.13-0.04-14.27,0.09-21.39-0.14c-6.09-0.2-10.44-3.91-11.3-9.12c-0.38-2.3,0.12-4.51,0.84-6.67
		c3.12-9.4,6.23-18.8,9.42-28.18c0.52-1.53,0.29-1.93-1.36-1.88c-3.73,0.11-7.47,0.08-11.2,0.01c-1.16-0.02-1.77,0.28-2.15,1.47
		c-2.86,8.86-5.84,17.67-8.68,26.53c-1.9,5.92-0.3,8.15,5.93,8.6c2.86,0.2,2.89,0.21,1.94,2.93c-0.74,2.12-0.7,5.06-2.4,6.13
		c-1.59,1-4.26,0.3-6.45,0.31c-4.6,0.02-9.2,0.01-13.8,0c-2.07,0-4.11-0.15-6.11-0.81c-5.61-1.84-8.39-6.35-7.06-12.11
		c1.48-6.35,3.96-12.4,5.92-18.6c1.38-4.37,2.81-8.73,4.3-13.07c0.38-1.12,0.15-1.39-0.97-1.37c-3.67,0.04-7.33,0.04-11,0
		c-1.06-0.01-1.37,0.19-1.09,1.36c0.97,4.05,0.41,8.06-0.43,12.07c-3.12,14.81-12.05,24.19-26.4,28.66
		c-8.91,2.78-18.03,3.97-27.58,4.18c1.07-3.35,2.06-6.5,3.08-9.64c0.17-0.52,0.64-0.63,1.11-0.72c10.6-2.17,17.24-8.96,21.48-18.48
		c1.52-3.41,2.67-6.95,3.16-10.68c0.53-4.13-1.15-6.33-5.29-6.44c-4.6-0.13-9.2,0.02-13.8-0.06c-1.26-0.02-1.32,0.79-1.59,1.6
		c-3.57,10.65-7.17,21.29-10.73,31.94c-2.71,8.13-5.34,16.29-8.06,24.42c-1.64,4.91-5.34,7.56-10.51,7.59
		c-6.13,0.03-12.26,0.01-18.61,0.01c1.76-5.33,3.46-10.49,5.17-15.65c6.11-18.42,12.22-36.84,18.34-55.26
		c1.7-5.12,5.91-8.18,11.27-8.19C386.57,161.77,391.75,161.78,397.46,161.78z"/>
	<path class="st0" d="M769.86,261.49c19.2,0,38.39,0,57.59,0c2.34,0,2.34,0,1.59,2.33c-2.25,7.03-4.54,14.05-6.71,21.1
		c-0.46,1.48-1.02,2.06-2.7,2.05c-13.2-0.1-26.4-0.02-39.59-0.11c-1.65-0.01-2.24,0.51-2.72,2.03
		c-9.27,29.51-18.61,58.99-27.87,88.49c-0.49,1.56-1.13,2.01-2.74,1.99c-9.33-0.09-18.66-0.04-28-0.04c-2.49,0-2.5-0.01-1.73-2.47
		c9.12-29.2,18.24-58.41,27.37-87.61c0.73-2.34,0.73-2.33-1.79-2.33c-12.8,0-25.6-0.03-38.39,0.04c-1.67,0.01-2.19-0.16-1.58-2
		c2.4-7.19,4.7-14.42,6.9-21.67c0.48-1.59,1.22-1.96,2.8-1.96c19.2,0.06,38.39,0.04,57.59,0.04
		C769.86,261.41,769.86,261.45,769.86,261.49z"/>
	<path class="st0" d="M978.49,262.13c-1.68,5.36-3.29,10.55-4.93,15.73c-5.76,18.27-11.53,36.53-17.28,54.8
		c-1.02,3.25-1.84,6.52-1.46,9.99c0.48,4.39,2.79,7.37,6.77,9.14c3.43,1.52,7.08,1.81,10.75,1.83c11.13,0.04,22.26,0.01,33.39,0.01
		c0.72,0,1.45,0,2.39,0c-1.95,6.23-3.83,12.25-5.72,18.26c-0.56,1.78-1.17,3.54-1.68,5.33c-0.25,0.9-0.65,1.29-1.65,1.27
		c-16.99-0.23-33.99,0.48-50.98-0.41c-6.1-0.32-11.96-1.89-17.24-5.17c-6.67-4.14-10.06-10.26-10.73-17.97
		c-0.65-7.39,1.15-14.4,3.36-21.35c7.33-23.14,14.61-46.3,21.86-69.47c0.48-1.53,1.09-2.05,2.74-2.03c9.4,0.1,18.8,0.05,28.19,0.05
		C976.94,262.13,977.6,262.13,978.49,262.13z"/>
	<path class="st0" d="M474.8,378.91c-4.86,0-9.73-0.07-14.59,0.04c-1.74,0.04-2.08-0.25-1.52-2.01
		c6.57-20.72,13.05-41.47,19.57-62.21c5.42-17.25,10.87-34.49,16.24-51.76c0.45-1.44,0.98-2,2.56-1.98c9.66,0.08,19.32,0.08,28.98,0
		c1.7-0.01,1.82,0.43,1.36,1.91c-11.89,38.14-23.76,76.3-35.57,114.46c-0.41,1.31-1.01,1.58-2.23,1.57
		C484.66,378.88,479.73,378.91,474.8,378.91z"/>
	<path class="st0" d="M648.89,379.3c-4.87,0-9.73-0.06-14.6,0.03c-1.67,0.03-2-0.29-1.46-1.98c5.73-18.07,11.37-36.17,17.04-54.26
		c6.23-19.86,12.49-39.72,18.67-59.6c0.5-1.61,1.17-2.15,2.88-2.14c9.53,0.09,19.07,0.08,28.6,0.01c1.78-0.01,1.94,0.45,1.44,2.05
		c-11.86,38.03-23.68,76.08-35.45,114.14c-0.45,1.46-1.13,1.79-2.52,1.77C658.62,379.25,653.76,379.3,648.89,379.3z"/>
	<path class="st2" d="M183.36,204.09c38.92,0,70.39,31.38,70.39,70.19c0,38.72-31.65,70.26-70.45,70.21
		c-38.91-0.05-70.31-31.58-70.28-70.57C113.06,235.42,144.61,204.1,183.36,204.09z"/>
</g>
</svg>
