<?xml version="1.0" encoding="utf-8"?>
<!-- Generator: Adobe Illustrator 26.0.3, SVG Export Plug-In . SVG Version: 6.00 Build 0)  -->
<svg version="1.1" id="Layer_1" xmlns="http://www.w3.org/2000/svg" xmlns:xlink="http://www.w3.org/1999/xlink" x="0px" y="0px"
	 viewBox="0 0 829.55 365.49" style="enable-background:new 0 0 829.55 365.49;" xml:space="preserve">
<style type="text/css">
	.st0{fill:#0233B2;}
	.st1{fill:#2A54F7;}
	.st2{fill:#0A0A95;}
</style>
<g>
	<g>
		<g>
			<g>
				<path class="st0" d="M365.9,300.44V277.5h8.29c2.56,0,4.49,0.62,5.94,1.87c1.38,1.24,2.07,3.04,2.07,5.32
					c0,2.28-0.69,4.08-2.07,5.32c-1.38,1.24-3.39,1.87-5.94,1.87h-5.11v8.5L365.9,300.44L365.9,300.44z M369.08,289.11h4.77
					c2.07,0,3.39-0.41,4.08-1.17c0.69-0.76,1.04-1.87,1.04-3.18s-0.35-2.42-1.04-3.18c-0.69-0.76-2.07-1.17-4.08-1.17h-4.77V289.11z
					"/>
				<path class="st0" d="M389.26,300.44V277.5h8.5c2.56,0,4.56,0.62,6.08,1.8c1.45,1.17,2.21,2.9,2.21,5.18
					c0,1.87-0.48,3.39-1.45,4.49c-0.97,1.11-2.21,1.87-3.66,2.28l6.08,9.26h-3.8l-5.53-8.71h-5.18v8.71L389.26,300.44L389.26,300.44
					z M392.44,288.69h5.11c2,0,3.39-0.41,4.08-1.17c0.76-0.76,1.11-1.8,1.11-3.04c0-2.83-1.8-4.21-5.32-4.21h-4.97V288.69z"/>
				<path class="st0" d="M413.24,293.87c-0.41-1.45-0.62-3.11-0.62-4.97s0.21-3.52,0.62-4.97c0.41-1.45,0.97-2.56,1.66-3.39
					c0.69-0.83,1.52-1.52,2.49-2.07s1.93-0.9,2.83-1.04c0.9-0.21,1.93-0.28,2.97-0.28c1.04,0,2.07,0.07,2.97,0.28
					c0.9,0.21,1.87,0.55,2.83,1.04c0.97,0.55,1.8,1.24,2.49,2.07c0.69,0.83,1.24,2,1.66,3.39c0.41,1.45,0.69,3.11,0.69,4.97
					s-0.21,3.52-0.69,4.97c-0.41,1.45-0.97,2.56-1.66,3.39c-0.69,0.83-1.52,1.52-2.49,2.07s-1.93,0.9-2.83,1.04
					c-0.9,0.21-1.93,0.28-2.97,0.28c-1.04,0-2.07-0.07-2.97-0.28c-0.9-0.21-1.87-0.55-2.83-1.04c-0.97-0.55-1.8-1.24-2.49-2.07
					C414.27,296.43,413.65,295.33,413.24,293.87z M416.28,284.96c-0.35,1.11-0.48,2.42-0.48,3.94s0.14,2.83,0.48,3.94
					c0.35,1.11,0.69,2,1.17,2.63c0.48,0.62,1.04,1.11,1.73,1.45c0.69,0.35,1.38,0.62,2,0.69c0.62,0.07,1.31,0.14,2.14,0.14
					c0.83,0,1.52-0.07,2.14-0.14c0.62-0.07,1.31-0.35,2-0.69s1.31-0.9,1.73-1.45c0.48-0.62,0.83-1.45,1.17-2.63
					c0.28-1.11,0.48-2.42,0.48-3.94s-0.14-2.83-0.48-3.94c-0.28-1.11-0.69-2-1.17-2.63s-1.04-1.11-1.73-1.45
					c-0.69-0.35-1.38-0.62-2-0.69s-1.31-0.14-2.14-0.14c-0.83,0-1.52,0.07-2.14,0.14c-0.62,0.07-1.24,0.35-2,0.69
					c-0.76,0.35-1.31,0.9-1.73,1.45C416.97,283.03,416.55,283.86,416.28,284.96z"/>
				<path class="st0" d="M439.98,299.33v-3.32c1.31,1.11,2.83,1.59,4.49,1.59c1.31,0,2.28-0.28,2.9-0.83s0.97-1.59,0.97-3.11V277.5
					h3.18v15.96c0,1.52-0.21,2.76-0.69,3.8c-0.41,1.04-1.04,1.8-1.8,2.28c-0.76,0.48-1.45,0.83-2.14,0.97
					c-0.69,0.21-1.38,0.28-2.14,0.28C443.02,300.71,441.43,300.3,439.98,299.33z"/>
				<path class="st0" d="M459.88,300.44V277.5h14.99v2.97h-11.75v6.98h10.36v2.97h-10.36v6.98h11.75v2.97h-14.99V300.44z"/>
				<path class="st0" d="M481.64,293.87c-0.41-1.45-0.62-3.11-0.62-4.97s0.21-3.52,0.62-4.97c0.41-1.45,0.97-2.56,1.66-3.39
					c0.69-0.83,1.52-1.52,2.49-2.07c0.97-0.55,1.93-0.9,2.83-1.04c0.9-0.21,1.93-0.28,2.97-0.28c2.42,0,4.7,0.48,7.05,1.38v2.97
					c-2.14-0.97-4.35-1.45-6.63-1.45c-2.69,0-4.7,0.69-5.87,2.07c-1.24,1.38-1.87,3.66-1.87,6.77c0,3.11,0.62,5.32,1.87,6.77
					c1.24,1.38,3.18,2.14,5.87,2.14c2.28,0,4.49-0.48,6.63-1.45v2.97c-2.28,0.9-4.63,1.38-7.05,1.38c-1.04,0-2.07-0.07-2.97-0.28
					s-1.87-0.55-2.83-1.04c-0.97-0.55-1.8-1.24-2.49-2.07C482.61,296.43,482.06,295.33,481.64,293.87z"/>
				<path class="st0" d="M504.51,280.47v-2.97h18.73v2.97h-7.81v19.97h-3.18v-19.97H504.51z"/>
				<path class="st0" d="M543.76,300.44V277.5h3.45l7.53,9.95l7.6-9.95h3.45v22.94h-3.18v-18.1l-7.88,10.3l-7.81-10.3v18.1H543.76z"
					/>
				<path class="st0" d="M572.3,300.44l9.19-22.94h3.11l9.12,22.94h-3.45l-2.49-6.5h-9.6l-2.49,6.5H572.3z M579.34,290.97h7.32
					l-3.66-9.54L579.34,290.97z"/>
				<path class="st0" d="M600.21,300.44V277.5h3.66l12.85,18.31V277.5h3.18v22.94h-3.52l-12.92-18.38v18.38H600.21z"/>
				<path class="st0" d="M626.61,300.44l9.19-22.94h3.11l9.12,22.94h-3.45l-2.49-6.5h-9.6l-2.49,6.5H626.61z M633.65,290.97h7.32
					l-3.66-9.54L633.65,290.97z"/>
				<path class="st0" d="M653,288.97c0-1.87,0.21-3.52,0.62-4.97c0.41-1.45,0.97-2.56,1.66-3.39s1.52-1.52,2.49-2.07
					s1.93-0.9,2.83-1.04c0.9-0.21,1.93-0.28,3.04-0.28c2.56,0,4.98,0.41,7.26,1.31v2.97c-2.21-0.9-4.56-1.38-6.91-1.38
					c-0.83,0-1.59,0.07-2.21,0.14c-0.62,0.07-1.31,0.35-2.07,0.69c-0.69,0.35-1.31,0.9-1.8,1.45c-0.48,0.62-0.9,1.45-1.24,2.56
					c-0.35,1.11-0.48,2.42-0.48,3.94s0.14,2.83,0.48,3.94c0.35,1.11,0.76,2,1.24,2.63c0.48,0.62,1.11,1.11,1.8,1.45
					c0.76,0.35,1.45,0.62,2.07,0.69c0.69,0.07,1.38,0.14,2.21,0.14c1.52,0,3.04-0.21,4.63-0.62v-6.5h-4.7v-2.97h7.81v11.19
					c-2.56,1.24-5.18,1.8-8.02,1.8h-0.07c-1.11,0-2.07-0.07-3.04-0.28c-0.9-0.21-1.87-0.55-2.83-1.04c-0.97-0.55-1.8-1.24-2.49-2.07
					s-1.24-2-1.66-3.39C653.21,292.49,653,290.83,653,288.97z"/>
				<path class="st0" d="M679.95,300.44V277.5h14.99v2.97H683.2v6.98h10.36v2.97H683.2v6.98h11.75v2.97h-14.99V300.44z"/>
				<path class="st0" d="M702.41,300.44V277.5h3.45l7.53,9.95l7.6-9.95h3.45v22.94h-3.18v-18.1l-7.88,10.3l-7.81-10.3v18.1H702.41
					L702.41,300.44z"/>
				<path class="st0" d="M732.95,300.44V277.5h14.99v2.97h-11.75v6.98h10.36v2.97h-10.36v6.98h11.75v2.97h-14.99L732.95,300.44
					L732.95,300.44z"/>
				<path class="st0" d="M755.33,300.44V277.5H759l12.85,18.31V277.5h3.18v22.94h-3.52l-12.92-18.38v18.38H755.33z"/>
				<path class="st0" d="M781.52,280.47v-2.97h18.73v2.97h-7.81v19.97h-3.18v-19.97H781.52z"/>
			</g>
			<g>
				<polygon class="st1" points="453.8,98.12 410.06,210.47 376.55,123.9 388.71,123.9 399.35,98.12 366.6,98.12 349.04,98.12 
					336.05,98.12 396.03,243.02 424.29,243.02 484.27,98.12 				"/>
				<path class="st1" d="M568.98,97.92c-22.66,0-45.33,0-67.99,0v25.98h67.99c34.62,0,34.82,51.13,0,51.13h-67.99v67.44h27.22
					v-42.49h40.84C639.67,199.9,639.46,97.92,568.98,97.92z"/>
				<g>
					<polygon class="st1" points="640.5,145.25 640.5,242.6 667.72,242.6 667.72,182.49 					"/>
					<polygon class="st1" points="762.17,98.33 716.99,160.38 671.87,98.33 640.5,98.33 640.5,100.27 667.72,137.72 667.72,137.65 
						713.67,200.52 719.06,200.52 766.04,137.85 766.04,242.6 793.27,242.6 793.27,98.33 					"/>
				</g>
			</g>
		</g>
	</g>
	<g>
		<g>
			<polygon class="st2" points="18,94.67 142.45,335.13 146.52,293.46 61.33,128.39 183.14,156.65 185.35,133.98 			"/>
		</g>
		<path class="st1" d="M190.67,79.95l60.6,76.56l-78.15,101.23L190.67,79.95 M173.4,21.15l-30.96,313.98L280.43,156.3L173.4,21.15
			L173.4,21.15z"/>
		<polygon class="st2" points="280.43,156.3 185.35,133.98 183.14,156.65 265.44,175.72 		"/>
	</g>
</g>
</svg>
