<?xml version="1.0" encoding="utf-8"?>
<!-- Generator: Adobe Illustrator 22.1.0, SVG Export Plug-In . SVG Version: 6.00 Build 0)  -->
<svg version="1.1" id="Layer_1" xmlns="http://www.w3.org/2000/svg" xmlns:xlink="http://www.w3.org/1999/xlink" x="0px" y="0px"
	 viewBox="0 0 857 470" style="enable-background:new 0 0 857 470;" xml:space="preserve">
<style type="text/css">
	.st0{fill:#0233B2;}
	.st1{fill:#2A54F7;}
	.st2{fill:#0A0A95;}
</style>
<g>
	<g>
		<g>
			<g>
				<path class="st0" d="M479.4-271.1v-33.2h12c3.7,0,6.5,0.9,8.6,2.7c2,1.8,3,4.4,3,7.7c0,3.3-1,5.9-3,7.7c-2,1.8-4.9,2.7-8.6,2.7
					H484v12.3L479.4-271.1L479.4-271.1z M484-287.5h6.9c3,0,4.9-0.6,5.9-1.7s1.5-2.7,1.5-4.6s-0.5-3.5-1.5-4.6s-3-1.7-5.9-1.7H484
					V-287.5z"/>
				<path class="st0" d="M513.2-271.1v-33.2h12.3c3.7,0,6.6,0.9,8.8,2.6c2.1,1.7,3.2,4.2,3.2,7.5c0,2.7-0.7,4.9-2.1,6.5
					c-1.4,1.6-3.2,2.7-5.3,3.3l8.8,13.4h-5.5l-8-12.6h-7.5v12.6L513.2-271.1L513.2-271.1z M517.8-288.1h7.4c2.9,0,4.9-0.6,5.9-1.7
					c1.1-1.1,1.6-2.6,1.6-4.4c0-4.1-2.6-6.1-7.7-6.1h-7.2V-288.1z"/>
				<path class="st0" d="M547.9-280.6c-0.6-2.1-0.9-4.5-0.9-7.2s0.3-5.1,0.9-7.2c0.6-2.1,1.4-3.7,2.4-4.9c1-1.2,2.2-2.2,3.6-3
					c1.4-0.8,2.8-1.3,4.1-1.5c1.3-0.3,2.8-0.4,4.3-0.4s3,0.1,4.3,0.4s2.7,0.8,4.1,1.5c1.4,0.8,2.6,1.8,3.6,3s1.8,2.9,2.4,4.9
					c0.6,2.1,1,4.5,1,7.2s-0.3,5.1-1,7.2c-0.6,2.1-1.4,3.7-2.4,4.9c-1,1.2-2.2,2.2-3.6,3c-1.4,0.8-2.8,1.3-4.1,1.5
					c-1.3,0.3-2.8,0.4-4.3,0.4s-3-0.1-4.3-0.4s-2.7-0.8-4.1-1.5c-1.4-0.8-2.6-1.8-3.6-3C549.4-276.9,548.5-278.5,547.9-280.6z
					 M552.3-293.5c-0.5,1.6-0.7,3.5-0.7,5.7s0.2,4.1,0.7,5.7s1,2.9,1.7,3.8s1.5,1.6,2.5,2.1s2,0.9,2.9,1s1.9,0.2,3.1,0.2
					c1.2,0,2.2-0.1,3.1-0.2c0.9-0.1,1.9-0.5,2.9-1s1.9-1.3,2.5-2.1c0.7-0.9,1.2-2.1,1.7-3.8c0.4-1.6,0.7-3.5,0.7-5.7
					s-0.2-4.1-0.7-5.7c-0.4-1.6-1-2.9-1.7-3.8s-1.5-1.6-2.5-2.1s-2-0.9-2.9-1s-1.9-0.2-3.1-0.2c-1.2,0-2.2,0.1-3.1,0.2
					c-0.9,0.1-1.8,0.5-2.9,1s-1.9,1.3-2.5,2.1C553.3-296.3,552.7-295.1,552.3-293.5z"/>
				<path class="st0" d="M586.6-272.7v-4.8c1.9,1.6,4.1,2.3,6.5,2.3c1.9,0,3.3-0.4,4.2-1.2c0.9-0.8,1.4-2.3,1.4-4.5v-23.4h4.6v23.1
					c0,2.2-0.3,4-1,5.5c-0.6,1.5-1.5,2.6-2.6,3.3c-1.1,0.7-2.1,1.2-3.1,1.4c-1,0.3-2,0.4-3.1,0.4C591-270.7,588.7-271.3,586.6-272.7
					z"/>
				<path class="st0" d="M615.4-271.1v-33.2h21.7v4.3h-17v10.1h15v4.3h-15v10.1h17v4.3h-21.7V-271.1z"/>
				<path class="st0" d="M646.9-280.6c-0.6-2.1-0.9-4.5-0.9-7.2s0.3-5.1,0.9-7.2c0.6-2.1,1.4-3.7,2.4-4.9c1-1.2,2.2-2.2,3.6-3
					c1.4-0.8,2.8-1.3,4.1-1.5c1.3-0.3,2.8-0.4,4.3-0.4c3.5,0,6.8,0.7,10.2,2v4.3c-3.1-1.4-6.3-2.1-9.6-2.1c-3.9,0-6.8,1-8.5,3
					c-1.8,2-2.7,5.3-2.7,9.8s0.9,7.7,2.7,9.8c1.8,2,4.6,3.1,8.5,3.1c3.3,0,6.5-0.7,9.6-2.1v4.3c-3.3,1.3-6.7,2-10.2,2
					c-1.5,0-3-0.1-4.3-0.4s-2.7-0.8-4.1-1.5c-1.4-0.8-2.6-1.8-3.6-3C648.3-276.9,647.5-278.5,646.9-280.6z"/>
				<path class="st0" d="M680-300v-4.3h27.1v4.3h-11.3v28.9h-4.6V-300H680z"/>
				<path class="st0" d="M736.8-271.1v-33.2h5l10.9,14.4l11-14.4h5v33.2h-4.6v-26.2l-11.4,14.9l-11.3-14.9v26.2H736.8z"/>
				<path class="st0" d="M778.1-271.1l13.3-33.2h4.5l13.2,33.2h-5l-3.6-9.4h-13.9l-3.6,9.4H778.1z M788.3-284.8h10.6l-5.3-13.8
					L788.3-284.8z"/>
				<path class="st0" d="M818.5-271.1v-33.2h5.3l18.6,26.5v-26.5h4.6v33.2h-5.1l-18.7-26.6v26.6H818.5z"/>
				<path class="st0" d="M856.7-271.1l13.3-33.2h4.5l13.2,33.2h-5l-3.6-9.4h-13.9l-3.6,9.4H856.7z M866.9-284.8h10.6l-5.3-13.8
					L866.9-284.8z"/>
				<path class="st0" d="M894.9-287.7c0-2.7,0.3-5.1,0.9-7.2c0.6-2.1,1.4-3.7,2.4-4.9c1-1.2,2.2-2.2,3.6-3c1.4-0.8,2.8-1.3,4.1-1.5
					c1.3-0.3,2.8-0.4,4.4-0.4c3.7,0,7.2,0.6,10.5,1.9v4.3c-3.2-1.3-6.6-2-10-2c-1.2,0-2.3,0.1-3.2,0.2s-1.9,0.5-3,1
					c-1,0.5-1.9,1.3-2.6,2.1c-0.7,0.9-1.3,2.1-1.8,3.7s-0.7,3.5-0.7,5.7s0.2,4.1,0.7,5.7s1.1,2.9,1.8,3.8s1.6,1.6,2.6,2.1
					c1.1,0.5,2.1,0.9,3,1c1,0.1,2,0.2,3.2,0.2c2.2,0,4.4-0.3,6.7-0.9v-9.4h-6.8v-4.3H922v16.2c-3.7,1.8-7.5,2.6-11.6,2.6h-0.1
					c-1.6,0-3-0.1-4.4-0.4c-1.3-0.3-2.7-0.8-4.1-1.5c-1.4-0.8-2.6-1.8-3.6-3s-1.8-2.9-2.4-4.9C895.2-282.6,894.9-285,894.9-287.7z"
					/>
				<path class="st0" d="M933.9-271.1v-33.2h21.7v4.3h-17v10.1h15v4.3h-15v10.1h17v4.3h-21.7V-271.1z"/>
				<path class="st0" d="M966.4-271.1v-33.2h5l10.9,14.4l11-14.4h5v33.2h-4.6v-26.2l-11.4,14.9L971-297.3v26.2L966.4-271.1
					L966.4-271.1z"/>
				<path class="st0" d="M1010.6-271.1v-33.2h21.7v4.3h-17v10.1h15v4.3h-15v10.1h17v4.3h-21.7V-271.1z"/>
				<path class="st0" d="M1043-271.1v-33.2h5.3l18.6,26.5v-26.5h4.6v33.2h-5.1l-18.7-26.6v26.6H1043z"/>
				<path class="st0" d="M1080.9-300v-4.3h27.1v4.3h-11.3v28.9h-4.6V-300H1080.9z"/>
			</g>
			<g>
				<polygon class="st1" points="606.6,-563.9 543.3,-401.3 494.8,-526.6 512.4,-526.6 527.8,-563.9 480.4,-563.9 455,-563.9 
					436.2,-563.9 523,-354.2 563.9,-354.2 650.7,-563.9 				"/>
				<path class="st1" d="M773.3-564.2c-32.8,0-65.6,0-98.4,0v37.6h98.4c50.1,0,50.4,74,0,74h-98.4v97.6h39.4v-61.5h59.1
					C875.6-416.6,875.3-564.2,773.3-564.2z"/>
				<g>
					<polygon class="st1" points="876.8,-495.7 876.8,-354.8 916.2,-354.8 916.2,-441.8 					"/>
					<polygon class="st1" points="1052.9,-563.6 987.5,-473.8 922.2,-563.6 876.8,-563.6 876.8,-560.8 916.2,-506.6 916.2,-506.7 
						982.7,-415.7 990.5,-415.7 1058.5,-506.4 1058.5,-354.8 1097.9,-354.8 1097.9,-563.6 					"/>
				</g>
			</g>
		</g>
	</g>
	<g>
		<g>
			<polygon class="st2" points="-24.1,-568.9 156,-220.9 161.9,-281.2 38.6,-520.1 214.9,-479.2 218.1,-512 			"/>
		</g>
		<path class="st1" d="M225.8-590.2l87.7,110.8L200.4-332.9L225.8-590.2 M200.8-675.3L156-220.9l199.7-258.8L200.8-675.3
			L200.8-675.3z"/>
		<polygon class="st2" points="355.7,-479.7 218.1,-512 214.9,-479.2 334,-451.6 		"/>
	</g>
</g>
<g>
	<g>
		<g>
			<g>
				<path class="st0" d="M95.5,442.8v-38.7h13.9c4.3,0,7.6,1.1,10,3.2s3.5,5.1,3.5,9s-1.2,6.9-3.5,9c-2.4,2.1-5.7,3.2-10,3.2h-8.5
					v14.3H95.5z M100.9,423.7h8c3.4,0,5.7-0.7,6.9-2c1.2-1.3,1.7-3.1,1.7-5.4c0-2.2-0.6-4-1.7-5.4c-1.2-1.3-3.5-2-6.9-2h-8V423.7z"
					/>
				<path class="st0" d="M134.8,442.8v-38.7H149c4.3,0,7.7,1,10.2,3s3.7,4.9,3.7,8.7c0,3.2-0.8,5.7-2.5,7.6s-3.7,3.2-6.2,3.9
					l10.3,15.5h-6.4l-9.3-14.7h-8.7v14.7H134.8z M140.2,423.1h8.6c3.4,0,5.7-0.7,6.9-2s1.9-3,1.9-5.1c0-4.7-3-7.1-9-7.1h-8.4V423.1z
					"/>
				<path class="st0" d="M175.2,431.8c-0.7-2.4-1.1-5.2-1.1-8.4c0-3.2,0.4-6,1.1-8.4c0.7-2.4,1.7-4.3,2.8-5.7
					c1.2-1.4,2.6-2.6,4.2-3.5c1.6-0.9,3.2-1.5,4.8-1.8s3.2-0.5,5-0.5s3.4,0.2,5,0.5s3.2,0.9,4.8,1.8s3,2.1,4.2,3.5s2.1,3.3,2.8,5.7
					c0.7,2.4,1.1,5.2,1.1,8.4c0,3.2-0.4,6-1.1,8.4c-0.7,2.4-1.7,4.3-2.8,5.7c-1.2,1.4-2.6,2.6-4.2,3.5s-3.2,1.5-4.8,1.8
					s-3.2,0.5-5,0.5s-3.4-0.1-5-0.5c-1.6-0.3-3.2-0.9-4.8-1.8s-3-2.1-4.2-3.5C176.9,436.1,175.9,434.2,175.2,431.8z M180.3,416.8
					c-0.5,1.9-0.8,4.1-0.8,6.6c0,2.6,0.3,4.8,0.8,6.6c0.5,1.9,1.2,3.3,2,4.4c0.8,1,1.8,1.9,2.9,2.5c1.2,0.6,2.3,1,3.3,1.2
					s2.2,0.3,3.6,0.3s2.5-0.1,3.6-0.3c1-0.2,2.2-0.6,3.3-1.2c1.2-0.6,2.2-1.5,2.9-2.5c0.8-1,1.4-2.5,1.9-4.4s0.8-4.1,0.8-6.6
					s-0.3-4.8-0.8-6.6c-0.5-1.9-1.2-3.3-1.9-4.4c-0.8-1-1.7-1.9-2.9-2.5s-2.3-1-3.3-1.2s-2.2-0.3-3.6-0.3s-2.5,0.1-3.6,0.3
					c-1,0.2-2.1,0.6-3.3,1.2s-2.2,1.5-2.9,2.5C181.4,413.5,180.8,414.9,180.3,416.8z"/>
				<path class="st0" d="M220.2,441v-5.6c2.2,1.8,4.8,2.7,7.6,2.7c2.2,0,3.9-0.5,4.9-1.4c1.1-0.9,1.6-2.7,1.6-5.3v-27.3h5.3V431
					c0,2.5-0.4,4.6-1.1,6.4c-0.8,1.7-1.8,3-3,3.8c-1.3,0.8-2.5,1.3-3.6,1.6c-1.1,0.3-2.4,0.5-3.6,0.5
					C225.4,443.3,222.7,442.5,220.2,441z"/>
				<path class="st0" d="M253.8,442.8v-38.7H279v5h-19.8V421h17.4v5h-17.4v11.8H279v5H253.8z"/>
				<path class="st0" d="M290.4,431.8c-0.7-2.4-1.1-5.2-1.1-8.4c0-3.2,0.4-6,1.1-8.4s1.7-4.3,2.8-5.7c1.2-1.4,2.6-2.6,4.2-3.5
					s3.2-1.5,4.8-1.8c1.6-0.3,3.2-0.5,5-0.5c4,0,8,0.8,11.8,2.3v5c-3.6-1.6-7.4-2.4-11.2-2.4c-4.6,0-7.9,1.2-9.9,3.5
					c-2.1,2.3-3.1,6.2-3.1,11.4c0,5.2,1,9,3.1,11.4s5.4,3.6,9.9,3.6c3.8,0,7.6-0.8,11.2-2.4v5c-3.9,1.5-7.8,2.3-11.8,2.3
					c-1.8,0-3.4-0.1-5-0.5c-1.6-0.3-3.2-0.9-4.8-1.8s-3-2.1-4.2-3.5C292,436.1,291.1,434.2,290.4,431.8z"/>
				<path class="st0" d="M328.9,409.2v-5h31.5v5h-13.1v33.6h-5.4v-33.6H328.9z"/>
				<path class="st0" d="M395.1,442.8v-38.7h5.8l12.7,16.7l12.8-16.7h5.8v38.7h-5.4v-30.5l-13.2,17.3l-13.1-17.3v30.5H395.1z"/>
				<path class="st0" d="M443,442.8l15.4-38.7h5.3l15.4,38.7h-5.8l-4.2-10.9H453l-4.2,10.9H443z M454.9,426.9h12.3l-6.1-16.1
					L454.9,426.9z"/>
				<path class="st0" d="M490.1,442.8v-38.7h6.1l21.6,30.8v-30.8h5.4v38.7h-6l-21.8-31v31H490.1z"/>
				<path class="st0" d="M534.6,442.8l15.4-38.7h5.3l15.4,38.7h-5.8l-4.2-10.9h-16.1l-4.2,10.9H534.6z M546.5,426.9h12.3l-6.1-16.1
					L546.5,426.9z"/>
				<path class="st0" d="M579,423.5c0-3.1,0.4-5.9,1.1-8.3c0.7-2.4,1.7-4.3,2.8-5.7c1.2-1.4,2.6-2.6,4.2-3.5
					c1.6-0.9,3.2-1.5,4.8-1.8s3.3-0.5,5.1-0.5c4.3,0,8.3,0.7,12.2,2.2v5c-3.8-1.5-7.6-2.3-11.7-2.3c-1.4,0-2.6,0.1-3.7,0.3
					c-1.1,0.2-2.3,0.6-3.5,1.2s-2.2,1.5-3,2.5s-1.5,2.5-2,4.3c-0.5,1.9-0.8,4.1-0.8,6.6c0,2.6,0.3,4.8,0.8,6.6
					c0.5,1.9,1.2,3.3,2,4.4c0.8,1,1.8,1.9,3.1,2.5c1.2,0.6,2.4,1,3.5,1.2s2.4,0.3,3.8,0.3c2.5,0,5.1-0.4,7.8-1.1v-10.9h-7.9v-5h13.1
					v18.9c-4.3,2-8.8,3.1-13.5,3.1c-0.1,0-0.1,0-0.1,0c-1.8,0-3.5-0.1-5.1-0.5c-1.6-0.3-3.2-0.9-4.8-1.8s-3-2.1-4.2-3.5
					s-2.1-3.3-2.8-5.7C579.3,429.4,579,426.6,579,423.5z"/>
				<path class="st0" d="M624.4,442.8v-38.7h25.2v5h-19.8V421h17.4v5h-17.4v11.8h19.8v5H624.4z"/>
				<path class="st0" d="M662.2,442.8v-38.7h5.8l12.7,16.7l12.8-16.7h5.8v38.7h-5.4v-30.5l-13.2,17.3l-13.1-17.3v30.5H662.2z"/>
				<path class="st0" d="M713.6,442.8v-38.7h25.2v5H719V421h17.4v5H719v11.8h19.8v5H713.6z"/>
				<path class="st0" d="M751.4,442.8v-38.7h6.1l21.6,30.8v-30.8h5.4v38.7h-6l-21.8-31v31H751.4z"/>
				<path class="st0" d="M795.5,409.2v-5H827v5h-13.1v33.6h-5.4v-33.6H795.5z"/>
			</g>
			<g>
				<polygon class="st1" points="243.5,102 169.8,291.3 113.4,145.4 133.8,145.4 151.8,102 96.6,102 67.1,102 45.2,102 146.2,346.1 
					193.8,346.1 294.8,102 				"/>
				<path class="st1" d="M437.5,101.7c-38.2,0-76.4,0-114.6,0v43.7h114.6c58.3,0,58.7,86.1,0,86.1H323V345h45.8v-71.5h68.7
					C556.6,273.5,556.3,101.7,437.5,101.7z"/>
				<g>
					<polygon class="st1" points="558,181.5 558,345.4 603.8,345.4 603.8,244.2 					"/>
					<polygon class="st1" points="762.8,102.4 686.8,206.9 610.8,102.4 558,102.4 558,105.7 603.8,168.7 603.8,168.7 681.2,274.6 
						690.3,274.6 769.4,169 769.4,345.4 815.2,345.4 815.2,102.4 					"/>
				</g>
			</g>
		</g>
	</g>
</g>
</svg>
