<?xml version="1.0" encoding="utf-8"?>
<!-- Generator: Adobe Illustrator 22.1.0, SVG Export Plug-In . SVG Version: 6.00 Build 0)  -->
<svg version="1.1" id="Layer_1" xmlns="http://www.w3.org/2000/svg" xmlns:xlink="http://www.w3.org/1999/xlink" x="0px" y="0px"
	 viewBox="0 0 420 470" style="enable-background:new 0 0 420 470;" xml:space="preserve">
<style type="text/css">
	.st0{fill:#0A0A95;}
	.st1{fill:#2A54F7;}
	.st2{fill:#0233B2;}
</style>
<g>
	<g>
		<g>
			<polygon class="st0" points="17.9,114.1 198,462.1 203.9,401.8 80.6,162.9 256.9,203.8 260.1,171 			"/>
		</g>
		<path class="st1" d="M267.8,92.8l87.7,110.8L242.4,350.1L267.8,92.8 M242.8,7.7L198,462.1l199.7-258.8L242.8,7.7L242.8,7.7z"/>
		<polygon class="st0" points="397.7,203.3 260.1,171 256.9,203.8 376,231.4 		"/>
	</g>
</g>
<g>
	<g>
		<g>
			<g>
				<path class="st2" d="M479.4-271.1v-33.2h12c3.7,0,6.5,0.9,8.6,2.7c2,1.8,3,4.4,3,7.7c0,3.3-1,5.9-3,7.7c-2,1.8-4.9,2.7-8.6,2.7
					H484v12.3H479.4z M484-287.5h6.9c3,0,4.9-0.6,5.9-1.7c1-1.1,1.5-2.7,1.5-4.6c0-1.9-0.5-3.5-1.5-4.6c-1-1.1-3-1.7-5.9-1.7H484
					V-287.5z"/>
				<path class="st2" d="M513.2-271.1v-33.2h12.3c3.7,0,6.6,0.9,8.8,2.6c2.1,1.7,3.2,4.2,3.2,7.5c0,2.7-0.7,4.9-2.1,6.5
					c-1.4,1.6-3.2,2.7-5.3,3.3l8.8,13.4h-5.5l-8-12.6h-7.5v12.6H513.2z M517.8-288.1h7.4c2.9,0,4.9-0.6,5.9-1.7
					c1.1-1.1,1.6-2.6,1.6-4.4c0-4.1-2.6-6.1-7.7-6.1h-7.2V-288.1z"/>
				<path class="st2" d="M547.9-280.6c-0.6-2.1-0.9-4.5-0.9-7.2c0-2.7,0.3-5.1,0.9-7.2c0.6-2.1,1.4-3.7,2.4-4.9c1-1.2,2.2-2.2,3.6-3
					c1.4-0.8,2.8-1.3,4.1-1.5c1.3-0.3,2.8-0.4,4.3-0.4c1.5,0,3,0.1,4.3,0.4c1.3,0.3,2.7,0.8,4.1,1.5c1.4,0.8,2.6,1.8,3.6,3
					c1,1.2,1.8,2.9,2.4,4.9c0.6,2.1,1,4.5,1,7.2c0,2.7-0.3,5.1-1,7.2c-0.6,2.1-1.4,3.7-2.4,4.9c-1,1.2-2.2,2.2-3.6,3
					c-1.4,0.8-2.8,1.3-4.1,1.5c-1.3,0.3-2.8,0.4-4.3,0.4c-1.5,0-3-0.1-4.3-0.4c-1.3-0.3-2.7-0.8-4.1-1.5c-1.4-0.8-2.6-1.8-3.6-3
					C549.4-276.9,548.5-278.5,547.9-280.6z M552.3-293.5c-0.5,1.6-0.7,3.5-0.7,5.7c0,2.2,0.2,4.1,0.7,5.7c0.5,1.6,1,2.9,1.7,3.8
					c0.7,0.9,1.5,1.6,2.5,2.1c1,0.5,2,0.9,2.9,1c0.9,0.1,1.9,0.2,3.1,0.2c1.2,0,2.2-0.1,3.1-0.2c0.9-0.1,1.9-0.5,2.9-1
					c1-0.5,1.9-1.3,2.5-2.1c0.7-0.9,1.2-2.1,1.7-3.8c0.4-1.6,0.7-3.5,0.7-5.7c0-2.2-0.2-4.1-0.7-5.7c-0.4-1.6-1-2.9-1.7-3.8
					c-0.7-0.9-1.5-1.6-2.5-2.1c-1-0.5-2-0.9-2.9-1c-0.9-0.1-1.9-0.2-3.1-0.2c-1.2,0-2.2,0.1-3.1,0.2c-0.9,0.1-1.8,0.5-2.9,1
					s-1.9,1.3-2.5,2.1C553.3-296.3,552.7-295.1,552.3-293.5z"/>
				<path class="st2" d="M586.6-272.7v-4.8c1.9,1.6,4.1,2.3,6.5,2.3c1.9,0,3.3-0.4,4.2-1.2c0.9-0.8,1.4-2.3,1.4-4.5v-23.4h4.6v23.1
					c0,2.2-0.3,4-1,5.5c-0.6,1.5-1.5,2.6-2.6,3.3c-1.1,0.7-2.1,1.2-3.1,1.4c-1,0.3-2,0.4-3.1,0.4C591-270.7,588.7-271.3,586.6-272.7
					z"/>
				<path class="st2" d="M615.4-271.1v-33.2h21.7v4.3h-17v10.1h15v4.3h-15v10.1h17v4.3H615.4z"/>
				<path class="st2" d="M646.9-280.6c-0.6-2.1-0.9-4.5-0.9-7.2c0-2.7,0.3-5.1,0.9-7.2c0.6-2.1,1.4-3.7,2.4-4.9c1-1.2,2.2-2.2,3.6-3
					c1.4-0.8,2.8-1.3,4.1-1.5c1.3-0.3,2.8-0.4,4.3-0.4c3.5,0,6.8,0.7,10.2,2v4.3c-3.1-1.4-6.3-2.1-9.6-2.1c-3.9,0-6.8,1-8.5,3
					c-1.8,2-2.7,5.3-2.7,9.8c0,4.5,0.9,7.7,2.7,9.8c1.8,2,4.6,3.1,8.5,3.1c3.3,0,6.5-0.7,9.6-2.1v4.3c-3.3,1.3-6.7,2-10.2,2
					c-1.5,0-3-0.1-4.3-0.4c-1.3-0.3-2.7-0.8-4.1-1.5c-1.4-0.8-2.6-1.8-3.6-3C648.3-276.9,647.5-278.5,646.9-280.6z"/>
				<path class="st2" d="M680-300v-4.3h27.1v4.3h-11.3v28.9h-4.6V-300H680z"/>
				<path class="st2" d="M736.8-271.1v-33.2h5l10.9,14.4l11-14.4h5v33.2h-4.6v-26.2l-11.4,14.9l-11.3-14.9v26.2H736.8z"/>
				<path class="st2" d="M778.1-271.1l13.3-33.2h4.5l13.2,33.2h-5l-3.6-9.4h-13.9l-3.6,9.4H778.1z M788.3-284.8h10.6l-5.3-13.8
					L788.3-284.8z"/>
				<path class="st2" d="M818.5-271.1v-33.2h5.3l18.6,26.5v-26.5h4.6v33.2h-5.1l-18.7-26.6v26.6H818.5z"/>
				<path class="st2" d="M856.7-271.1l13.3-33.2h4.5l13.2,33.2h-5l-3.6-9.4h-13.9l-3.6,9.4H856.7z M866.9-284.8h10.6l-5.3-13.8
					L866.9-284.8z"/>
				<path class="st2" d="M894.9-287.7c0-2.7,0.3-5.1,0.9-7.2c0.6-2.1,1.4-3.7,2.4-4.9c1-1.2,2.2-2.2,3.6-3c1.4-0.8,2.8-1.3,4.1-1.5
					c1.3-0.3,2.8-0.4,4.4-0.4c3.7,0,7.2,0.6,10.5,1.9v4.3c-3.2-1.3-6.6-2-10-2c-1.2,0-2.3,0.1-3.2,0.2c-0.9,0.1-1.9,0.5-3,1
					c-1,0.5-1.9,1.3-2.6,2.1c-0.7,0.9-1.3,2.1-1.8,3.7c-0.5,1.6-0.7,3.5-0.7,5.7c0,2.2,0.2,4.1,0.7,5.7s1.1,2.9,1.8,3.8
					c0.7,0.9,1.6,1.6,2.6,2.1c1.1,0.5,2.1,0.9,3,1c1,0.1,2,0.2,3.2,0.2c2.2,0,4.4-0.3,6.7-0.9v-9.4h-6.8v-4.3H922v16.2
					c-3.7,1.8-7.5,2.6-11.6,2.6c0,0-0.1,0-0.1,0c-1.6,0-3-0.1-4.4-0.4c-1.3-0.3-2.7-0.8-4.1-1.5c-1.4-0.8-2.6-1.8-3.6-3
					c-1-1.2-1.8-2.9-2.4-4.9C895.2-282.6,894.9-285,894.9-287.7z"/>
				<path class="st2" d="M933.9-271.1v-33.2h21.7v4.3h-17v10.1h15v4.3h-15v10.1h17v4.3H933.9z"/>
				<path class="st2" d="M966.4-271.1v-33.2h5l10.9,14.4l11-14.4h5v33.2h-4.6v-26.2l-11.4,14.9L971-297.3v26.2H966.4z"/>
				<path class="st2" d="M1010.6-271.1v-33.2h21.7v4.3h-17v10.1h15v4.3h-15v10.1h17v4.3H1010.6z"/>
				<path class="st2" d="M1043-271.1v-33.2h5.3l18.6,26.5v-26.5h4.6v33.2h-5.1l-18.7-26.6v26.6H1043z"/>
				<path class="st2" d="M1080.9-300v-4.3h27.1v4.3h-11.3v28.9h-4.6V-300H1080.9z"/>
			</g>
			<g>
				<polygon class="st1" points="606.6,-563.9 543.3,-401.3 494.8,-526.6 512.4,-526.6 527.8,-563.9 480.4,-563.9 455,-563.9 
					436.2,-563.9 523,-354.2 563.9,-354.2 650.7,-563.9 				"/>
				<path class="st1" d="M773.3-564.2c-32.8,0-65.6,0-98.4,0v37.6h98.4c50.1,0,50.4,74,0,74h-98.4v97.6h39.4v-61.5h59.1
					C875.6-416.6,875.3-564.2,773.3-564.2z"/>
				<g>
					<polygon class="st1" points="876.8,-495.7 876.8,-354.8 916.2,-354.8 916.2,-441.8 					"/>
					<polygon class="st1" points="1052.9,-563.6 987.5,-473.8 922.2,-563.6 876.8,-563.6 876.8,-560.8 916.2,-506.6 916.2,-506.7 
						982.7,-415.7 990.5,-415.7 1058.5,-506.4 1058.5,-354.8 1097.9,-354.8 1097.9,-563.6 					"/>
				</g>
			</g>
		</g>
	</g>
	<g>
		<g>
			<polygon class="st0" points="-24.1,-568.9 156,-220.9 161.9,-281.2 38.6,-520.1 214.9,-479.2 218.1,-512 			"/>
		</g>
		<path class="st1" d="M225.8-590.2l87.7,110.8L200.4-332.9L225.8-590.2 M200.8-675.3L156-220.9l199.7-258.8L200.8-675.3
			L200.8-675.3z"/>
		<polygon class="st0" points="355.7,-479.7 218.1,-512 214.9,-479.2 334,-451.6 		"/>
	</g>
</g>
</svg>
