<?xml version="1.0" encoding="utf-8"?>
<!-- Generator: Adobe Illustrator 22.1.0, SVG Export Plug-In . SVG Version: 6.00 Build 0)  -->
<svg version="1.1" id="Layer_1" xmlns="http://www.w3.org/2000/svg" xmlns:xlink="http://www.w3.org/1999/xlink" x="0px" y="0px"
	 viewBox="0 0 100 100" style="enable-background:new 0 0 100 100;" xml:space="preserve">
<style type="text/css">
	.st0{fill:#F1991D;}
	.st1{fill:#E18313;}
	.st2{fill:#F7C3BA;}
	.st3{fill:#EEAFA7;}
	.st4{fill:#D3E6E1;}
	.st5{fill:#EF938D;}
	.st6{fill:#FFFFFF;}
	.st7{fill:#C07214;}
	.st8{fill:#F4ACA3;}
	.st9{fill:#934242;}
	.st10{fill:#F39F95;}
	.st11{fill:#90CCBC;}
	.st12{fill:#729E91;}
</style>
<g>
	<path class="st0" d="M86.1,41c-0.1-0.2-0.2-0.4-0.4-0.6c-3.3-5.1-3.8-11.4-5.3-17.1c-1.3-5.2-3.4-10.9-7.7-14.2
		c-2.5-1.9-5.4-3.5-8.4-4.5c-2.9-0.9-6-1.2-9-0.5c-2.1,0.5-4.2,1.5-5.9,2.9c-4.4-2.4-9.7-3-14.3-0.5c-2.6,1.4-4.5,3.6-5.6,6.4
		c-2.7,7-3.5,14.6-8.1,20.9c-3,4.1-7,7.3-10.5,11c-3.5,3.7-6.6,8-7.2,13.1c-0.3,2.7,0.2,5.7,2.1,7.7c1.9,2,5.3,2.7,7.5,0.9
		C5.9,67.3-0.5,73.6-1.4,80.9c-0.4,3.6,0.5,7.6,3.4,9.6c3.9,2.8,9.4,1.1,13.3-1.7c-2.4,0.1-4.6,2-5.4,4.3c-0.8,2.3-0.5,4.9,0.5,7.1
		c2,4.1,6.3,6.8,10.8,7.5c4.5,0.7,9.2-0.3,13.3-2.1c7.2-3.1,13.3-8.6,17.1-15.4c0.7,5.6,2.4,11.6,7.1,14.6c3.5,2.2,8.1,2.2,12,0.6
		c3.8-1.7,6.8-4.8,8.9-8.4c1-1.7,1.8-3.5,1.8-5.4c0.1-1.9-0.8-4-2.4-4.9c1.2,4.3,5.9,7.2,10.4,6.6c4.4-0.5,8.2-4,9.7-8.3
		c1.5-4.2,0.8-9-1.3-13c-2.1-4-5.4-7.2-9.1-9.7c1.4,2.1,4.7,2.2,6.6,0.6c1.9-1.6,2.5-4.4,2-6.8c-0.5-2.4-2-4.6-3.6-6.4
		C91.2,46.7,88.3,44.2,86.1,41z"/>
	<path class="st1" d="M61.7,34.9c-4.3-0.6-8.9-0.5-13.2-0.3c-4,0.2-8,0.5-11.9,1.2c-0.1,0.2-0.3,0.3-0.6,0.4
		c-1.1,0.3-2.2,0.5-3.3,0.8c-0.8,0.2-2.4,0.4-2.9,1.2c-0.6,0.8,0.1,2.3,0.4,3.1c0.4,1.1,1,2.2,1.4,3.4c0.9,3.1,0.2,6.5,1.8,9.5
		c1.3,2.4,3.5,4,4.8,6.4c1.2,2.2,1.4,4.7,1.9,7.1c0.5,2.2,1,4.4,2,6.5c1.2,2.3,3,4,5.3,5.2c2,1.1,4.4,2,6.8,1.8
		c2.9-0.2,4.4-2.7,5.4-5.1c1.1-2.6,1.4-5.3,1.9-8c0.5-2.5,1.3-4.7,3-6.7c1.6-1.9,3.6-3.3,4.9-5.3c2.7-3.9,4.2-9.7,2.6-14.3
		C70.5,37.2,65.9,35.5,61.7,34.9z"/>
	<path class="st2" d="M57.7,48.6h-14c-0.1,6.4-0.4,12.6-1.3,19c0,0,3.2,5.4,8.8,5.4c5.6,0,8.1-5.5,8.1-5.5
		C58.6,61,58.4,55.4,57.7,48.6z"/>
	<path class="st3" d="M45.6,59c2.2,0.8,4.6,1.1,6.9,1.5c2.2,0.4,4.4,0.9,6.4,2c-0.4-4.5-0.7-8.9-1.2-13.9h-14
		c-0.1,3.2-0.2,6.3-0.4,9.4C44.1,58.4,44.9,58.7,45.6,59z"/>
	<path class="st2" d="M71.4,43.4c-0.1,0.4-0.2,0.8-0.3,1.2c-0.1,0.3-0.2,0.7-0.2,1c-0.1,0.5-0.3,1.1-0.4,1.6l0,0l0,0.1
		c-0.9,3-2.2,5.9-4.7,7.8c-2.6,1.9-6,2.4-9.2,2.5c-2.6,0.1-5.2,0.1-7.7,0c-4.2-0.2-8.7-1-11.7-4c-1.3-1.4-2.2-3.1-3-4.8
		c-0.3-0.8-0.6-1.5-0.9-2.3c-0.2-0.5-0.3-1-0.5-1.5l-0.1-0.3l0-0.1c-0.1-0.4-0.3-0.9-0.4-1.3c-0.5-1.9-0.8-3.8-1.1-5.7
		c-0.3-1.9-0.4-3.9-0.2-5.8c0.1-1.9,0.4-3.8,1-5.6c0.6-2,1.5-4,2.7-5.8c2.4-3.6,5.8-6.6,9.7-8.2l0.2-0.1c2.1-0.9,4.3-1.3,6.7-1.3
		c4.3,0,8.1,1.1,11.5,3.7c2,1.5,3.7,3.3,5.1,5.4h0c0.9,1.3,1.6,2.7,2.2,4.1c0.7,1.7,1.2,3.4,1.4,5.2l0,0.3c0.1,0.6,0.1,1.1,0.2,1.7
		c0,0.2,0.1,0.5,0.1,0.7c0.1,0.8,0.4,1.5,0.5,2.3C72.6,37.2,72.1,40.3,71.4,43.4z"/>
	<path class="st2" d="M106.5,128c-0.4-0.9-0.9-1.9-1.3-2.8c-2.3-4.2-5.3-8-8-11.9c-4-5.8-7.3-12-9.9-18.5c-2.6-6.4-4.6-13.2-8.4-19
		c-2.1-3.1-4.7-5.8-7.9-7.6c-3-1.7-6.5-1.9-9.8-1.8c-3.5,0.1-7,0.1-10.6,0.1c-9.4,0-21.5-0.2-26.1,9.9c-1.8,3.9-1.8,8.4-2.6,12.6
		c-2.9,16.1-16,28.8-20,44.7c-1.2,4.7-1.5,9.8,0.3,14.3c2.4,5.9,8.1,10,14.1,11.9c6.1,1.9,12.5,2,18.9,2.1
		c8.1,0.1,16.2,0.2,24.3,0.3c7.8,0.1,15.6,0.2,23.2-1.3c7.6-1.5,15.1-4.8,20.3-10.6c2.9-3.2,5.1-7.2,5.6-11.6
		C108.9,135.3,108,131.5,106.5,128z"/>
	<path class="st4" d="M108.4,139c-0.2,2-0.8,3.9-1.7,5.8c-0.6,1.2-1.2,2.3-2,3.4c-0.6,0.8-1.2,1.6-1.9,2.4
		c-5.2,5.8-12.7,9.1-20.3,10.6c-7.6,1.5-15.4,1.4-23.2,1.3c-8.1-0.1-16.2-0.2-24.3-0.3c-6.4-0.1-12.8-0.2-18.9-2.1
		c-2.4-0.8-4.8-1.9-7-3.4c-1.4-1-2.7-2.1-3.9-3.3c-1.4-1.5-2.5-3.3-3.3-5.2c-0.8-1.9-1.1-3.9-1.2-6c0-0.8,0-1.7,0-2.5
		c0.1-1.9,0.4-3.9,0.9-5.8c0.2-0.6,0.3-1.3,0.5-1.9c0.2-0.8,0.5-1.7,0.8-2.5c1.1-2.9,2.4-5.8,3.8-8.5c0.4-0.8,0.9-1.6,1.3-2.4
		c1.4-2.6,2.9-5.1,4.3-7.6c0.5-0.8,0.9-1.6,1.4-2.4c1.2-2.1,2.3-4.2,3.3-6.3c0.4-0.8,0.8-1.6,1.1-2.4c1-2.3,1.9-4.7,2.6-7.2
		c0.2-0.8,0.4-1.6,0.6-2.5c0.1-0.3,0.1-0.6,0.2-1c0.4-2.4,0.6-4.9,1-7.3c0.1-0.8,0.3-1.7,0.5-2.5c0.3-0.9,0.6-1.9,1-2.8
		c0.5-1.1,1.1-2,1.7-2.9c0.6-0.8,1.3-1.6,2.1-2.2c3.1-2.7,7.2-3.9,11.5-4.4c0.1,0.7,0.2,1.5,0.4,2.2c0.3,1,0.8,2,1.4,2.9
		c0.1,0.2,0.2,0.3,0.3,0.5c0.6,0.9,1.3,1.8,2.1,2.6c0.3,0.3,0.7,0.7,1.1,0.9c2.4,1.8,5.5,2.4,8.4,1.7c2-0.5,3.9-1.6,5.4-3.1
		c0.6-0.6,1.2-1.3,1.7-2.1c0.1-0.2,0.3-0.4,0.4-0.7c0.9-1.7,1.4-3.6,1.6-5.5c2.9,0,5.9,0.3,8.4,1.8c1,0.6,1.9,1.2,2.8,1.9
		c0.8,0.7,1.6,1.4,2.3,2.1c1.1,1.1,2,2.3,2.9,3.6c1,1.5,1.9,3.1,2.7,4.7c0.4,0.8,0.8,1.6,1.1,2.4c0.8,1.9,1.6,3.8,2.3,5.7
		c0.3,0.8,0.6,1.6,0.9,2.4c0.5,1.2,0.9,2.5,1.4,3.7c0.2,0.5,0.4,1,0.6,1.5c0.3,0.8,0.7,1.6,1,2.4c0.9,2.1,2,4.1,3,6.1
		c0.4,0.8,0.9,1.6,1.3,2.3c1,1.7,2,3.4,3.1,5c0.2,0.4,0.5,0.8,0.8,1.1c0.3,0.4,0.5,0.7,0.8,1.1c1.9,2.7,4,5.4,5.7,8.3
		c0.5,0.7,0.9,1.5,1.3,2.3l0.1,0.3c0.5,0.9,0.9,1.8,1.3,2.8c0.6,1.4,1.1,2.8,1.5,4.3c0.2,0.8,0.4,1.7,0.5,2.5
		C108.6,136.2,108.6,137.6,108.4,139z"/>
	<path class="st2" d="M70.4,36.6c0.3-0.9,0.6-1.8,1.2-2.5c0.6-0.7,1.5-1.3,2.4-1.2c1.1,0.1,2,0.9,2.4,1.9c1,2,0.3,4.7-1.5,6.1
		c-1.8,1.3-4.6,1.2-6.2-0.3L70.4,36.6z"/>
	<path class="st5" d="M74.9,37.2c-0.2,0-0.4,0-0.6,0l0,0l0,0l0,0c0.1-0.2,0.1-0.3,0.2-0.4c0.2-0.3,0.3-0.5,0.5-0.8
		c0.1-0.2,0.2-0.4,0-0.5c-0.1-0.1-0.4-0.2-0.5,0c-0.6,0.6-1,1.4-1.2,2.2l0,0c-0.2,0.6-0.2,1.2-0.2,1.8c0,0.2,0.2,0.4,0.4,0.4
		c0.2,0,0.4-0.2,0.4-0.4c0-0.5,0-0.9,0.1-1.4c0.3,0,0.5,0,0.8,0c0.2,0,0.4-0.2,0.4-0.4C75.3,37.3,75.1,37.2,74.9,37.2z"/>
	<path class="st2" d="M32.7,36.6c-0.3-0.9-0.6-1.8-1.2-2.5c-0.6-0.7-1.5-1.3-2.4-1.2c-1.1,0.1-2,0.9-2.4,1.9c-1,2-0.3,4.7,1.5,6.1
		c1.8,1.3,4.6,1.2,6.2-0.3L32.7,36.6z"/>
	<path class="st5" d="M28.3,37.2c0.2,0,0.4,0,0.6,0l0,0l0,0l0,0c-0.1-0.2-0.1-0.3-0.2-0.4c-0.2-0.3-0.3-0.5-0.5-0.8
		c-0.1-0.2-0.2-0.4,0-0.5c0.1-0.1,0.4-0.2,0.5,0c0.6,0.6,1,1.4,1.2,2.2l0,0c0.2,0.6,0.2,1.2,0.2,1.8c0,0.2-0.2,0.4-0.4,0.4
		c-0.2,0-0.4-0.2-0.4-0.4c0-0.5,0-0.9-0.1-1.4c-0.3,0-0.5,0-0.8,0c-0.2,0-0.4-0.2-0.4-0.4C27.9,37.3,28.1,37.2,28.3,37.2z"/>
	<path class="st6" d="M43.6,37.8c-0.6-0.5-1.3-1-2.1-1.2c-0.9-0.2-1.7,0.1-2.5,0.5l-0.1,0.2c0.3,0.9,1,1.7,1.9,1.8
		c1,0.1,2-0.3,2.7-1l0-0.1L43.6,37.8z"/>
	<path class="st7" d="M41.9,37.1c-0.1-0.2-0.2-0.3-0.4-0.4c-0.2-0.1-0.5-0.1-0.8,0c-0.4,0.3-0.5,0.9-0.4,1.3
		c0.1,0.4,0.4,0.8,0.8,0.9l0.1,0c0.2,0,0.3,0,0.5-0.1c0.2-0.1,0.3-0.3,0.3-0.5C42.1,37.9,42.1,37.5,41.9,37.1z"/>
	<path class="st7" d="M43.7,37.7c-0.2-0.4-0.7-0.7-1-0.9c-0.4-0.2-0.8-0.4-1.2-0.5c-0.9-0.2-1.9,0-2.7,0.4c-0.2,0.1-0.1,0.8,0.1,0.6
		c0.8-0.4,1.8-0.6,2.6-0.4c0.4,0.1,0.8,0.3,1.1,0.5c0.2,0.1,0.4,0.2,0.5,0.4c0.1,0.1,0.3,0.3,0.5,0.2C43.8,38,43.8,37.8,43.7,37.7z"
		/>
	<path class="st6" d="M61.7,37.8c0.6-0.5,1.3-1,2.1-1.2c0.9-0.2,1.7,0.1,2.5,0.5l0.1,0.2c-0.3,0.9-1,1.7-1.9,1.8c-1,0.1-2-0.3-2.7-1
		l0-0.1L61.7,37.8z"/>
	<path class="st7" d="M63.5,37.1c0.1-0.2,0.2-0.3,0.4-0.4c0.2-0.1,0.5-0.1,0.8,0c0.4,0.3,0.5,0.9,0.4,1.3c-0.1,0.4-0.4,0.8-0.8,0.9
		l-0.1,0c-0.2,0-0.3,0-0.5-0.1c-0.2-0.1-0.3-0.3-0.3-0.5C63.2,37.9,63.3,37.5,63.5,37.1z"/>
	<path class="st7" d="M61.7,38c0.2,0,0.3-0.2,0.5-0.3c0.2-0.1,0.3-0.2,0.5-0.4c0.4-0.2,0.7-0.4,1.2-0.5c0.9-0.1,1.9,0,2.6,0.4
		c0.2,0.1,0.3-0.5,0.1-0.6c-0.8-0.4-1.9-0.6-2.7-0.4c-0.4,0.1-0.8,0.3-1.1,0.5c-0.2,0.1-0.4,0.3-0.6,0.4c-0.2,0.1-0.4,0.3-0.5,0.5
		C61.6,37.8,61.6,38,61.7,38z"/>
	<path class="st7" d="M51.9,35.8c-0.1,2,0,4,0.4,5.9c0,0.1,0.2,0.2,0.3,0.2c0.5-0.1,1.3-0.2,1.6,0.4c0.3,0.6-0.4,1.2-0.8,1.5
		c-0.8,0.6-2,0.5-2.5-0.4c-0.1-0.2-0.5,0-0.4,0.2c0.8,1.4,2.6,1.2,3.5,0.2c0.5-0.5,0.9-1.2,0.5-1.9c-0.5-0.7-1.3-0.7-2.1-0.5
		l0.3,0.2c-0.4-1.9-0.5-3.9-0.4-5.8C52.3,35.5,51.9,35.5,51.9,35.8z"/>
	<path class="st7" d="M42.5,30.8L42.5,30.8c-0.1-0.3-0.4-0.4-0.6-0.3c-0.1-0.1-0.3,0-0.5,0.1l-0.2-0.2c-0.2-0.2-0.6-0.1-0.7,0.2
		l0,0.1c-0.2,0-0.4,0.1-0.4,0.4l-0.2,0.1c-0.1,0.1-0.2,0.2-0.2,0.3c-0.3-0.1-0.6,0.1-0.6,0.4c-0.2-0.1-0.4-0.1-0.6,0.1l-0.2,0.1
		c-0.3-0.2-0.7,0-0.7,0.3c-0.3-0.1-0.5,0.1-0.5,0.4c-0.3-0.1-0.6,0.2-0.5,0.5l0,0.1c-0.2,0-0.4,0.2-0.3,0.4
		c-0.2,0.1-0.3,0.3-0.3,0.5c0.1,0.2,0.2,0.5,0.3,0.7c0.1,0.3,0.5,0.3,0.7,0.1l0.1-0.1c0.2,0.1,0.5,0,0.6-0.2c0.2,0,0.4-0.2,0.4-0.4
		c0.3,0.1,0.7-0.2,0.6-0.5l0.1,0c0.1,0.1,0.2,0.1,0.3,0.1c0.3,0.2,0.7-0.1,0.6-0.4c0.2,0.2,0.6,0.1,0.7-0.2l0.1-0.2l0.1-0.1
		c0.1,0.1,0.4,0.1,0.5,0c0.1,0,0.3-0.1,0.3-0.3l0.2,0c0.1,0,0.3,0,0.4-0.1l0.1,0c0.2,0.3,0.7,0.2,0.7-0.3c0-0.4,0-0.8,0-1.2
		C42.9,31,42.7,30.8,42.5,30.8z M36.1,34.5L36.1,34.5L36.1,34.5L36.1,34.5L36.1,34.5z"/>
	<path class="st7" d="M61.5,32.5c0.1,0.4,0.2,0.8,0.3,1.1c0.1,0.4,0.6,0.4,0.8,0.1l0.1,0c0.1,0.1,0.3,0.1,0.4,0l0.2-0.1
		c0.1,0.1,0.2,0.2,0.4,0.2c0.2,0.1,0.4,0,0.5-0.1l0.2,0.1l0.1,0.2c0.2,0.3,0.6,0.2,0.7,0c0,0.3,0.5,0.5,0.7,0.3
		c0.1,0,0.2-0.1,0.3-0.2l0.1,0c0,0.3,0.4,0.5,0.7,0.3c0.1,0.2,0.3,0.3,0.5,0.3c0.1,0.2,0.4,0.3,0.6,0.1l0.1,0c0.2,0.1,0.6,0,0.6-0.3
		c0.1-0.3,0.1-0.5,0.1-0.8c0-0.2-0.2-0.4-0.4-0.4c0-0.2-0.2-0.3-0.4-0.3l0-0.1c0-0.3-0.4-0.5-0.6-0.4c-0.1-0.2-0.4-0.3-0.6-0.2
		c-0.1-0.3-0.5-0.4-0.7-0.1L66,32c-0.2-0.1-0.4-0.1-0.6,0c-0.1-0.3-0.5-0.4-0.7-0.3c0-0.1-0.1-0.2-0.3-0.3l-0.2,0
		c-0.1-0.2-0.3-0.3-0.5-0.2l-0.1-0.1c-0.2-0.3-0.6-0.3-0.7,0l-0.1,0.3c-0.2-0.1-0.4,0-0.5,0c-0.2,0-0.5,0.2-0.5,0.4l0,0.1
		C61.6,32,61.5,32.2,61.5,32.5z M68.9,33.9L68.9,33.9L68.9,33.9L68.9,33.9L68.9,33.9z"/>
	<path class="st0" d="M71.4,43.4c-0.1,0.4-0.2,0.8-0.3,1.2c-0.1,0.3-0.2,0.7-0.2,1c-0.1,0.5-0.3,1.1-0.4,1.6l0,0
		c0-0.7,0.1-1.5,0.1-2.2c0.2-3.5,0.5-7.1-0.2-10.5c-0.6-2.9-1.7-5.7-2.3-8.6c-0.1,0.2-0.2,0.5-0.3,0.7c-0.2,0.2-0.6,0.1-0.8,0.2
		c-0.3,0-0.6,0.1-1,0.1c-1.3,0.1-2.5,0.2-3.8,0.2c-2.5,0-5-0.2-7.5-0.5c-0.1,0-0.2-0.1-0.2-0.2c-0.1-0.5-0.2-0.9-0.3-1.4
		c-0.5,0.6-1.3,1-2.1,1.1c-0.7,0.1-1.4,0.1-2.1,0.1c-0.8,0-1.5,0-2.3,0c-1.5,0-3,0-4.5,0c-2.8,0-5.7,0.1-8.5-0.5
		c-0.2,1.6-0.3,3.2-0.5,4.8c-0.5,4.7-1,9.4-1.4,14.1c-0.1-0.4-0.3-0.9-0.4-1.3c-0.5-1.9-0.8-3.8-1.1-5.7c-0.3-1.9-0.4-3.9-0.2-5.8
		c0.1-1.9-1-4.6-0.5-6.4c0.6-2,2-5.7,3.2-7.5c2.4-3.6,5.3-5.3,9.2-7l2.7-1.3c2.1-0.9,4.9-0.8,7.2-0.8c4.3,0,7.7,1.1,11.2,3.7
		c2,1.5,3.5,2.2,4.9,4.3l0.9,2c0.9,1.3,1.8,4.3,2.4,5.7c0.7,1.7,1.1,2.5,1.4,4.3l0.5,0.7c0.1,0.6-0.2,0.3-0.1,0.9
		c0,0.2-0.6,1-0.6,1.2c0.1,0.8-1.2,1.7-1.1,2.5C72.6,37.2,72.1,40.3,71.4,43.4z"/>
	<path class="st8" d="M44.9,43.7c-0.4-1.4-1.6-2-2.9-2.1c-1.2-0.1-2.9-0.1-3.9,0.6c-0.8,0.6-1.3,1.6-0.8,2.6
		c0.1,0.2,0.2,0.3,0.3,0.4c0.1,0.1,0.1,0.2,0.2,0.3l0.3,0.2c0.6,0.4,1.3,0.6,2,0.7c1.2,0.1,2.5,0,3.6-0.4
		C44.5,45.7,45.2,44.8,44.9,43.7z"/>
	<path class="st8" d="M67.7,43.7c-0.4-1.4-1.6-2-2.9-2.1c-1.2-0.1-2.9-0.1-3.9,0.6c-0.8,0.6-1.3,1.6-0.8,2.6
		c0.1,0.2,0.2,0.3,0.3,0.4c0.1,0.1,0.1,0.2,0.2,0.3l0.3,0.2c0.6,0.4,1.3,0.6,2,0.7c1.2,0.1,2.5,0,3.6-0.4
		C67.3,45.7,68,44.8,67.7,43.7z"/>
	<path class="st9" d="M77.6,33.9c-0.6-0.9-1.6-1.5-2.6-1.7c-1.6-0.4-3.2,0.1-4.4,1.2c-0.4-1.4-1.1-2.6-2.2-3.6
		c-1.5-1.2-3.3-2-5.2-2.1c-2.1-0.2-4.2,0.5-5.7,1.9C56,30.8,55,32.7,55,34.7l0,0.1c-0.1,0.6-0.1,1.2,0,1.9c-2.1-0.4-4.2-0.3-6.2,0.2
		c0.1-0.7,0.1-1.3,0.1-2c-0.1-2-0.9-3.9-2.5-5.2c-1.5-1.2-3.3-2-5.2-2.1c-2.1-0.2-4.2,0.5-5.7,1.9c-1.2,1-2,2.4-2.3,3.9
		c-0.3-0.3-0.6-0.6-1-0.8C31.1,32,30,31.9,28.9,32c-2.2,0.3-3.7,2.3-3.8,4.4c0,0.5,0.4,0.8,0.8,0.8c0.5,0,0.8-0.4,0.8-0.8
		c0.1-1.3,1.1-2.5,2.5-2.7c0.7-0.1,1.4,0.1,2,0.5c0.6,0.4,1.1,1.1,1.5,1.7l0.1,0.1c0,1.4,0.3,2.9,0.9,4.2c0.8,1.8,2.1,3.3,3.9,4.2
		c1.8,0.9,3.9,1.1,5.7,0.3c2.5-1,4.2-3.3,5-5.8c2.2-0.7,4.6-0.9,7-0.3c0.1,0.5,0.3,1.1,0.6,1.6c0.8,1.8,2.1,3.3,3.9,4.2
		c1.8,0.9,3.9,1.1,5.7,0.3c3.5-1.4,5.5-5.4,5.5-9.1c0.4-0.6,1-1.1,1.6-1.5c0.6-0.3,1.4-0.4,2-0.3c0.7,0.2,1.3,0.5,1.7,1
		c0.5,0.7,0.5,1.6,0.6,2.4c0,1.1,1.7,1.1,1.7,0C78.4,36.1,78.3,34.9,77.6,33.9z M46.6,38.7c-0.5,1.5-1.4,2.9-2.7,3.7
		c-1.3,0.9-2.9,1.3-4.4,0.8c-1.5-0.4-2.8-1.5-3.7-2.8c-1.4-2.3-1.6-5.4-0.2-7.8c1.6-2.8,5.3-3.9,8.2-2.5c0.2,0.1,0.3,0.2,0.5,0.3
		c1.4,0.8,2.4,2.1,2.7,3.7C47.3,35.6,47.1,37.2,46.6,38.7z M68.6,38.7c-0.5,1.5-1.4,2.9-2.7,3.7c-1.3,0.9-2.9,1.3-4.4,0.8
		c-1.5-0.4-2.8-1.5-3.7-2.8c-1.4-2.3-1.6-5.4-0.2-7.8c1.6-2.8,5.3-3.9,8.2-2.5c0.2,0.1,0.3,0.2,0.5,0.3c1.4,0.8,2.4,2.1,2.7,3.7
		C69.4,35.6,69.1,37.2,68.6,38.7z"/>
	<path class="st10" d="M47.1,46.1c3.2,2.4,7.6,2.1,10.5-0.6c0.4-0.4-0.2-1-0.6-0.6c-2.6,2.5-6.6,2.6-9.5,0.5
		C47.1,45.1,46.7,45.8,47.1,46.1z"/>
	<path class="st11" d="M41.8,72.7c0.6,0.9,1.3,1.8,2.1,2.6c-2.3,0-4.5-0.1-6.8-0.3c-3.7-0.3-7.4-0.7-11.1-1.3
		c0.6-0.8,1.3-1.6,2.1-2.2c3.8,0.6,7.6,0.9,11.4,1.1C40.3,72.6,41.1,72.6,41.8,72.7z"/>
	<path class="st11" d="M75.9,72.4c-1.1,0.2-2.2,0.4-3.2,0.6c-4.6,0.8-9.2,1.4-13.9,1.8c0.6-0.6,1.2-1.3,1.7-2.1
		c0.1-0.2,0.3-0.4,0.4-0.7c4.3-0.4,8.5-1,12.7-1.8C74.4,70.9,75.2,71.6,75.9,72.4z"/>
	<path class="st11" d="M82.6,83c-3.9,0.4-7.8,0.8-11.7,1c-7.1,0.4-14.2,0.5-21.3,0.3c-7.1-0.2-14.1-0.8-21.1-1.7
		c-1.9-0.2-3.7-0.5-5.6-0.8c0.1-0.8,0.3-1.7,0.5-2.5c2.7,0.4,5.3,0.7,8,1.1c7,0.8,13.9,1.3,20.9,1.4c7,0.2,14.1,0,21.1-0.5
		c2.7-0.2,5.4-0.4,8.1-0.7C81.9,81.4,82.3,82.2,82.6,83z"/>
	<path class="st11" d="M85.8,91.2c-4.7,0.7-9.5,1.3-14.3,1.7C63.7,93.6,55.8,94,48,94c-7.9,0-15.7-0.3-23.5-1.1
		c-1.1-0.1-2.3-0.2-3.4-0.3c0.2-0.8,0.4-1.6,0.6-2.5c2,0.2,4,0.4,6,0.6c7.8,0.6,15.5,0.9,23.3,0.8c7.8-0.1,15.6-0.6,23.4-1.4
		c3.5-0.4,7-0.8,10.5-1.3C85.2,89.6,85.5,90.4,85.8,91.2z"/>
	<path class="st11" d="M88.9,98.8c-6.6,1.3-13.3,2.4-20,3.1c-8,0.9-16.1,1.4-24.2,1.5c-8.1,0.1-16.1-0.2-24.1-0.9
		c-1.1-0.1-2.2-0.2-3.3-0.3c0.4-0.8,0.8-1.6,1.1-2.4c1.8,0.2,3.6,0.3,5.4,0.5c8,0.6,16,0.8,24,0.6c8-0.2,16-0.8,24-1.8
		c5.4-0.7,10.7-1.6,16-2.6C88.2,97.2,88.6,98,88.9,98.8z"/>
	<path class="st11" d="M93.3,107.2c-6.9,1.3-13.9,2.3-20.9,3.1c-9.5,1.1-19,1.7-28.5,1.8c-9.5,0.2-19-0.1-28.5-0.9
		c-0.9-0.1-1.9-0.2-2.8-0.2c0.5-0.8,0.9-1.6,1.4-2.4c1.8,0.1,3.5,0.3,5.3,0.4c9.4,0.6,18.8,0.8,28.2,0.5c9.5-0.3,18.9-1,28.3-2.1
		c5.4-0.7,10.8-1.5,16.1-2.5C92.4,105.7,92.8,106.4,93.3,107.2z"/>
	<path class="st11" d="M97.9,114.5c-9.2,2.2-18.6,3.8-28,5c-9.4,1.1-18.9,1.8-28.4,2.1c-9.6,0.3-19.2,0.5-28.7-0.1
		c-1.9-0.1-3.9-0.3-5.8-0.5c0.4-0.8,0.9-1.6,1.3-2.4c2.8,0.3,5.6,0.5,8.4,0.6c9.4,0.4,18.9,0.2,28.3-0.2c9.4-0.4,18.8-1.2,28.1-2.4
		c7.9-1,15.7-2.4,23.4-4.3c0.2,0.4,0.5,0.8,0.8,1.1C97.4,113.7,97.7,114.1,97.9,114.5z"/>
	<path class="st11" d="M105,125c-9.2,2.4-18.5,4.3-27.9,5.6c-10.2,1.4-20.5,2.3-30.9,2.6c-10.6,0.3-21.3,0.2-31.9-0.4
		c-4-0.2-8-0.5-12-0.8c0.2-0.8,0.5-1.7,0.8-2.5c5,0.4,10,0.7,15,1c10.5,0.5,21.1,0.6,31.6,0.1c10.1-0.4,20.2-1.4,30.2-2.9
		c8-1.2,15.9-2.9,23.7-4.9C104.1,123.5,104.6,124.3,105,125z"/>
	<path class="st11" d="M108.4,134.9c-1.2,0.4-2.5,0.7-3.8,1.1c-9.8,2.8-19.8,4.8-29.8,6.2c-10.4,1.5-20.9,2.3-31.4,2.4
		c-10.7,0.2-21.5-0.3-32.2-1.3c-3.5-0.3-6.9-0.7-10.3-1.1c0-0.8,0-1.7,0-2.5c4.8,0.6,9.6,1.1,14.4,1.5c10.6,0.9,21.3,1.2,31.9,0.8
		c10.3-0.3,20.6-1.2,30.8-2.8c9.9-1.6,19.8-3.8,29.4-6.7c0.2-0.1,0.3-0.1,0.5-0.2C108.1,133.2,108.3,134,108.4,134.9z"/>
	<path class="st11" d="M106.8,144.8c-0.6,1.2-1.2,2.3-2,3.4c-8.8,3.1-17.7,5.8-26.8,7.7c-11,2.3-22.2,3.5-33.4,3.7
		c-11.2,0.2-22.4-0.7-33.5-2.6c-0.6-0.1-1.2-0.2-1.8-0.3c-1.4-1-2.7-2.1-3.9-3.3c3.4,0.7,6.7,1.3,10.1,1.8c10.9,1.6,22,2.2,33,1.8
		c11.1-0.4,22.1-1.9,32.9-4.4C90.1,150.5,98.5,147.9,106.8,144.8z"/>
	<path class="st2" d="M77.5,138.6L77.5,138.6c0.3-0.1,0.7-0.2,0.8-0.4c-0.8-0.2-1.7-0.2-2.5-0.3c-2.4-0.1-4.8-0.2-7.2-0.4
		c2.2-0.9,4.8-0.5,7-1.5c0.1-0.1,0.2-0.1,0.3-0.2c0.1-0.2,0-0.4-0.2-0.5c-0.2-0.1-0.4-0.1-0.6-0.1c-4.8-0.2-9.7,0.8-14.5,0.4
		c1.8-1,3.6-2,5.2-3.3c0.2-0.2,0.5-0.4,0.4-0.7c0-0.3-0.3-0.5-0.6-0.5c-0.3,0-0.5,0.1-0.8,0.2c-2.5,0.9-5.1,1.9-7.6,2.8
		c-2.1,0.8-4.3,1.3-6.6,0.9c-0.2,0-0.5,0.2-0.5,0.4c-0.4,1.4-0.8,2.7-1.1,4.1c-0.1,0.2-0.4,0.9-0.3,1.1c0.1,0.2,0.4,0.2,0.6,0.3
		c0.6,0.2,1.3,0.3,1.9,0.4c2.6,0.5,5.3,0.7,8,1.1c4.5,0.7,8.8,2.1,13.2,3c0.5,0.1,1.1,0.2,1.6,0.2c0.2,0,0.5-0.1,0.6-0.3
		c0-0.2-0.2-0.4-0.5-0.5c-2.4-1-4.8-1.9-7.2-2.9c2.7,0,5.4,0,8.1,0c1.1,0,2.1,0,3.1-0.3c-3-1.3-6.6-0.9-9.7-2
		c1.5-0.1,3.1-0.2,4.6-0.3C74.5,139,76,138.9,77.5,138.6z"/>
	<path class="st4" d="M54.9,133.9c-8.2-2.9-16.5-5.9-25-7.7c-2.2-0.5-4.3-0.8-6.5-1.1c0.9-2.7,1.9-5.5,2.8-8.2
		c1.3-3.8,2.5-7.6,3.6-11.4c1.1-3.8,2.2-7.7,3.1-11.6c0.9-3.9,1.8-7.8,2-11.8c0.1-2,0.1-4-0.2-6c-0.2-1.7-0.7-3.5-2.1-4.6
		c-4.1-3.3-9.3,2.1-11.7,5c-3.8,4.6-6.5,10-9.2,15.2c-3.8,7.4-6.8,15.2-8.4,23.4c-0.8,4.3-1.8,9.2-0.5,13.4c0.5,1.7,1.5,3.3,2.6,4.8
		c2.4,3,5.7,5.1,9.2,6.6c3.7,1.6,7.6,2.6,11.5,3.4c8.1,1.6,16.5,1.9,24.7,0.7c1-0.1,2-0.3,3-0.5c0.2,0,0.4-0.2,0.5-0.4
		c0.8-2.9,1.2-5.9,1.1-8.9C55.2,134.1,55.1,133.9,54.9,133.9z"/>
	<path class="st12" d="M3.1,114.1c-1.8,7.4-2.3,15.8,3.6,21.5c5.7,5.6,13.9,6.7,21.2,8.8c0.5,0.1,0.8-0.7,0.2-0.8
		c-7-2-14.7-3-20.3-8c-6.1-5.5-5.8-13.9-3.9-21.3C4.1,113.8,3.3,113.6,3.1,114.1z"/>
	<path class="st12" d="M23.9,124.7c2.3-7,4.6-13.9,6.8-20.9c0.2-0.5-0.6-0.7-0.8-0.2c-2.3,7-4.6,13.9-6.8,20.9
		C23,125,23.8,125.3,23.9,124.7z"/>
	<path class="st12" d="M22.1,125.1c6.7,1.4,13.3,2.9,19.8,4.7c0.5,0.1,0.8-0.7,0.2-0.8c-6.6-1.7-13.2-3.3-19.8-4.7
		C21.8,124.2,21.6,125,22.1,125.1z"/>
	<path class="st2" d="M24.9,138.6L24.9,138.6c-0.3-0.1-0.7-0.2-0.8-0.4c0.8-0.2,1.7-0.2,2.5-0.3c2.4-0.1,4.8-0.2,7.2-0.4
		c-2.2-0.9-4.8-0.5-7-1.5c-0.1-0.1-0.2-0.1-0.3-0.2c-0.1-0.2,0-0.4,0.2-0.5c0.2-0.1,0.4-0.1,0.6-0.1c4.8-0.2,9.7,0.8,14.5,0.4
		c-1.8-1-3.6-2-5.2-3.3c-0.2-0.2-0.5-0.4-0.4-0.7c0-0.3,0.3-0.5,0.6-0.5c0.3,0,0.5,0.1,0.8,0.2c2.5,0.9,5.1,1.9,7.6,2.8
		c2.1,0.8,4.3,1.3,6.6,0.9c0.2,0,0.5,0.2,0.5,0.4c0.4,1.4,0.8,2.7,1.1,4.1c0.1,0.2,0.4,0.9,0.3,1.1c-0.1,0.2-0.4,0.2-0.6,0.3
		c-0.6,0.2-1.3,0.3-1.9,0.4c-2.6,0.5-5.3,0.7-8,1.1c-4.5,0.7-8.8,2.1-13.2,3c-0.5,0.1-1.1,0.2-1.6,0.2c-0.2,0-0.5-0.1-0.6-0.3
		c0-0.2,0.2-0.4,0.5-0.5c2.4-1,4.8-1.9,7.2-2.9c-2.7,0-5.4,0-8.1,0c-1.1,0-2.1,0-3.1-0.3c3-1.3,6.6-0.9,9.7-2
		c-1.5-0.1-3.1-0.2-4.6-0.3C27.9,139,26.4,138.9,24.9,138.6z"/>
	<path class="st4" d="M47.5,133.9c8.2-2.9,16.5-5.9,25-7.7c2.2-0.5,4.3-0.8,6.5-1.1c-0.9-2.7-1.9-5.5-2.8-8.2
		c-1.3-3.8-2.5-7.6-3.6-11.4c-1.1-3.8-2.2-7.7-3.1-11.6c-0.9-3.9-1.8-7.8-2-11.8c-0.1-2-0.1-4,0.2-6c0.2-1.7,0.7-3.5,2.1-4.6
		c4.1-3.3,9.3,2.1,11.7,5c3.8,4.6,6.5,10,9.2,15.2c3.8,7.4,6.8,15.2,8.4,23.4c0.8,4.3,1.8,9.2,0.5,13.4c-0.5,1.7-1.5,3.3-2.6,4.8
		c-2.4,3-5.7,5.1-9.2,6.6c-3.7,1.6-7.6,2.6-11.5,3.4c-8.1,1.6-16.5,1.9-24.7,0.7c-1-0.1-2-0.3-3-0.5c-0.2,0-0.4-0.2-0.5-0.4
		c-0.8-2.9-1.2-5.9-1.1-8.9C47.1,134.1,47.3,133.9,47.5,133.9z"/>
	<path class="st12" d="M98.4,114.4c1.8,7.4,2.2,15.7-3.9,21.3c-5.6,5-13.3,6.1-20.3,8c-0.5,0.1-0.3,1,0.2,0.8
		c7.3-2.1,15.6-3.2,21.2-8.8c5.8-5.8,5.4-14.2,3.6-21.5C99.1,113.6,98.3,113.8,98.4,114.4z"/>
	<path class="st12" d="M79.3,124.5c-2.3-7-4.6-13.9-6.8-20.9c-0.2-0.5-1-0.3-0.8,0.2c2.3,7,4.6,13.9,6.8,20.9
		C78.6,125.3,79.4,125,79.3,124.5z"/>
	<path class="st12" d="M80.1,124.3c-6.7,1.4-13.3,2.9-19.8,4.7c-0.5,0.1-0.3,1,0.2,0.8c6.6-1.7,13.2-3.3,19.8-4.7
		C80.8,125,80.6,124.2,80.1,124.3z"/>
</g>
</svg>
