<?xml version="1.0" encoding="utf-8"?>
<!-- Generator: Adobe Illustrator 22.1.0, SVG Export Plug-In . SVG Version: 6.00 Build 0)  -->
<svg version="1.1" id="Layer_1" xmlns="http://www.w3.org/2000/svg" xmlns:xlink="http://www.w3.org/1999/xlink" x="0px" y="0px"
	 viewBox="0 0 100 100" style="enable-background:new 0 0 100 100;" xml:space="preserve">
<style type="text/css">
	.st0{fill:#4B2682;}
	.st1{fill:#F19180;}
	.st2{fill:#D16F62;}
	.st3{fill:#FBE5EF;}
	.st4{fill:#4C5BA5;}
	.st5{fill:#FFFFFF;}
	.st6{fill:#283875;}
	.st7{fill:#EF8479;}
</style>
<g>
	<path class="st0" d="M75,28.5c-0.1-1.8,0.9-3.4,0.7-5.2c-0.1-1.5-1.1-2.8-2.5-3.4c-0.7-0.3-1.5-0.3-2.2-0.2
		c-0.7,0.1-1.4,0.2-1.7-0.6c-0.3-0.6-0.2-1.3-0.5-2c-0.3-0.7-0.7-1.3-1.4-1.7c-0.6-0.4-1.4-0.6-2.1-0.6c-0.7,0-1.5,0.3-2.1-0.1
		c-0.5-0.3-0.6-1-0.6-1.5c-0.1-0.7-0.1-1.3-0.4-1.9c-0.8-1.4-2.5-1.1-3.7-0.7c-0.6,0.2-1.3,0.5-1.9,0.7c-0.5,0.1-1.2,0.1-1.6-0.4
		c-0.5-0.5-0.4-1.4-0.5-2.1C54.2,8.2,54,7.5,53.6,7c-0.8-1.3-2.3-1.9-3.8-1.5c-1.6,0.5-2.7,1.8-3.5,3.1c-0.4,0.7-0.8,1.5-1.3,2.1
		c-0.2,0.3-0.9,1.4-1.4,1.1c-0.4-0.2-0.5-1-0.7-1.4c-0.2-0.6-0.6-1.1-1.1-1.4c-1.1-0.6-2.5-0.3-3.4,0.5c-1.2,1-1.5,2.7-1.4,4.2
		c0,0.4,0.1,0.8,0.1,1.2c0,0.3,0.2,0.8-0.1,1c-0.3,0.3-1,0-1.3-0.2c-0.6-0.5-1-1.1-1.6-1.5c-0.7-0.3-1.4-0.3-2,0
		c-1.4,0.6-2.1,2.2-2,3.7c0,0.9,0.3,1.8,0.5,2.7c0.2,0.9,0.4,1.8,0.5,2.7c0.1,0.9,0.1,1.8-0.1,2.7c-0.1,0.3-0.1,0.7-0.3,1
		c-0.2,0.3-0.5,0.4-0.9,0.5c-0.7,0.2-1.3,0.6-1.8,1.1c-0.4,0.5-0.7,1.2-0.9,1.9c-0.4,1.7,0.2,3.3,0.7,4.9c0.6,1.6,1,3.2,1.3,4.8
		c0.6,3.2,0.7,6.5,1.3,9.8c0.6,3.1,1.6,6.2,3.7,8.6c1.9,2.3,4.6,3.9,7.5,4.7c1,0.3,2,0.4,3,0.5l0.1,0c3.8,0.6,7.7,0.8,11.5,0.7
		c1.9-0.1,3.9-0.3,5.8-0.5c1.7-0.2,3.4-0.6,5-1.4c2.6-1.4,4.1-4.1,5.1-6.9c0.5-1.5,0.9-3,1.2-4.6c0.4-1.9,0.7-3.8,1.1-5.7
		c0.3-1.9,0.6-3.8,0.9-5.7c0.3-1.9,0.6-3.8,0.6-5.7c0-1-0.1-1.9-0.3-2.8C75.3,30.3,75.1,29.4,75,28.5z"/>
	<path class="st1" d="M58.4,57.1H44.2c-0.1,6.5-0.5,12.8-1.3,19.3c0,0,3.3,5.4,9,5.4c5.7,0,8.2-5.6,8.2-5.6
		C59.3,69.8,59.1,64,58.4,57.1z"/>
	<path class="st2" d="M46.1,67.7c2.3,0.9,4.7,1.1,7,1.5c2.2,0.4,4.5,0.9,6.5,2c-0.4-4.6-0.7-9.1-1.2-14.1H44.2
		c-0.1,3.2-0.2,6.4-0.4,9.6C44.6,67.1,45.4,67.4,46.1,67.7z"/>
	<path class="st1" d="M34.9,45.8c-0.4-1.3-0.9-2.5-1.7-3.6c-0.8-1-2.1-1.8-3.4-1.7c-1.6,0.1-2.8,1.3-3.5,2.7
		c-1.4,2.9-0.4,6.8,2.2,8.7c2.6,1.9,6.6,1.7,9-0.5L34.9,45.8z"/>
	<path class="st1" d="M72.3,51.9c-0.1,0.4-0.2,0.8-0.3,1.2c-0.2,0.9-0.4,1.8-0.7,2.6l0,0.2c-0.9,3.1-2.2,6-4.8,7.9
		c-2.6,2-6.1,2.4-9.3,2.5c-2.6,0.1-5.3,0.1-7.9,0c-4.3-0.2-8.9-1-11.9-4.1c-1.4-1.4-2.3-3.1-3-4.9c-0.3-0.8-0.6-1.5-0.9-2.3
		c-0.2-0.6-0.4-1.2-0.6-1.8c-0.1-0.5-0.3-1-0.4-1.5c-0.5-1.9-0.8-3.8-1.1-5.8c-0.3-1.9-0.4-3.9-0.3-5.9c0.1-1.9,0.4-3.9,1-5.7
		c0.6-2.1,1.6-4.1,2.8-5.9c2.4-3.7,5.9-6.7,9.9-8.3l0.2-0.1c2.1-0.9,4.4-1.3,6.8-1.3c4.4,0,8.2,1.1,11.7,3.8c2,1.5,3.8,3.4,5.2,5.4
		l0,0c0.9,1.3,1.6,2.7,2.2,4.2c0.7,1.7,1.2,3.5,1.5,5.3l0,0.3c0.1,0.6,0.1,1.1,0.2,1.7c0,0.2,0.1,0.5,0.1,0.7
		c0.1,0.8,0.4,1.5,0.5,2.3C73.6,45.5,73,48.7,72.3,51.9z"/>
	<path class="st1" d="M69.8,44.6c0.4-1.3,0.9-2.5,1.7-3.6c0.8-1,2.1-1.8,3.4-1.7c1.6,0.1,2.8,1.3,3.5,2.7c1.4,2.9,0.4,6.8-2.2,8.7
		c-2.6,1.9-6.6,1.7-9-0.5L69.8,44.6z"/>
	<path class="st1" d="M104.2,143.8c-0.3-3-1-6-1.7-9c-0.7-3-1.4-6-2.3-9c-1.7-6-3.6-11.9-5.9-17.6c-2.2-5.6-4.4-11.2-7.6-16.3
		c-2.9-4.6-6.6-8.5-11.3-11.4c-4.4-2.7-9.5-4.4-14.7-4.9c-2.7-0.2-5.4-0.1-8.1-0.1c-2.8,0-5.5,0-8.3,0c-1.6,0-3.2,0-4.8,0.1
		c-2.6,0.3-5.1,0.8-7.6,1.7c-4.9,1.7-9.4,4.5-13.1,8.2c-4.1,4.1-6.8,9.3-9.1,14.5c-5,11.3-8.9,23.1-11.6,35.2c-0.7,3-1.4,6-1.6,9
		c-0.3,2.9,0,5.8,1.4,8.4c2.6,4.8,7.9,7.6,12.7,9.6c5.6,2.3,11.7,3.7,17.7,4.9c5.1,1,10.2,1.7,15.4,2.1c0.6,0,13,0,13.4,0
		c8.4-0.7,16.7-2.1,24.8-4.3c5.6-1.5,11.3-3.4,16-6.9c2.1-1.5,3.9-3.4,5.1-5.7C104.3,149.6,104.5,146.7,104.2,143.8z"/>
	<path class="st3" d="M104.2,143.8c-0.3-3-1-6-1.7-9c-0.7-3-1.4-6-2.3-9c-1.7-6-3.6-11.9-5.9-17.6c-2.2-5.6-4.4-11.2-7.6-16.3
		c-2.9-4.6-6.6-8.5-11.3-11.4c-4-2.5-8.6-4.1-13.2-4.7c-0.1,2.8-0.5,5.7-1.2,8.3c-0.8,2.9-2,5.9-4.3,7.9c-2.7,2.3-6.1,2.4-9.1,0.7
		c-3.2-1.8-5.5-5-6.9-8.3c-1.2-2.7-1.9-5.7-1.9-8.6c-2.3,0.3-4.6,0.8-6.8,1.6c-4.9,1.7-9.4,4.5-13.1,8.2c-4.1,4.1-6.8,9.3-9.1,14.5
		c-5,11.3-8.9,23.1-11.6,35.2c-0.7,3-1.4,6-1.6,9c-0.3,2.9,0,5.8,1.4,8.4c2.6,4.8,7.9,7.6,12.7,9.6c5.6,2.3,11.7,3.7,17.7,4.9
		c5.1,1,10.2,1.7,15.4,2.1c0.5,0.1,13.1,0.1,13.4,0c8.4-0.7,16.7-2.1,24.8-4.3c5.6-1.5,11.3-3.4,16-6.9c2.1-1.5,3.9-3.4,5.1-5.7
		C104.3,149.6,104.5,146.7,104.2,143.8z"/>
	<path class="st4" d="M21.9,155.8c0.4-3.6,0.8-7.1,1.4-10.7c0.6-3.4,1.4-6.8,2.3-10.2c1.8-6.8,3.9-13.4,5.7-20.1
		c1.9-6.7,3.5-13.6,4.2-20.6c0.4-3.7,0.4-7.5,0-11.2c-0.2-1.8-0.5-3.6-0.8-5.3c-0.1-0.4-0.1-0.8-0.2-1.2c-0.8,0.2-1.7,0.5-2.5,0.8
		c-4.9,1.7-9.4,4.5-13.1,8.2c-4.1,4.1-6.8,9.3-9.1,14.5c-5,11.3-8.9,23.1-11.6,35.2c-0.7,3-1.4,6-1.6,9c-0.3,2.9,0,5.8,1.4,8.4
		c2.6,4.8,7.9,7.6,12.7,9.6c3.2,1.3,6.5,2.3,9.8,3.1C21.2,162.1,21.6,159,21.9,155.8z"/>
	<path class="st4" d="M104.2,143.8c-0.3-3-1-6-1.7-9c-0.7-3-1.4-6-2.3-9c-1.7-6-3.6-11.9-5.9-17.6c-2.2-5.6-4.4-11.2-7.6-16.3
		c-2.9-4.6-6.6-8.5-11.3-11.4c-2.8-1.7-5.8-3-9-3.8c-0.4,3.1-0.8,6.3-1.1,9.4c-0.3,4.3-0.2,8.6,0.5,12.8
		c2.2,14.8,5.9,29.3,10.5,43.5c2.2,6.9,4.6,13.7,8,20.2c0.2,0.5,0.5,0.9,0.7,1.4c4.5-1.4,8.9-3.1,12.7-5.9c2.1-1.5,3.9-3.4,5.1-5.7
		C104.3,149.6,104.5,146.7,104.2,143.8z"/>
	<path class="st5" d="M44.1,46.1c-0.6-0.5-1.3-1-2.1-1.2c-0.9-0.2-1.7,0.1-2.5,0.5l-0.1,0.2c0.3,0.9,1,1.7,2,1.8
		c1,0.1,2.1-0.3,2.8-1l0-0.1L44.1,46.1z"/>
	<path class="st0" d="M42.3,45.4c-0.1-0.2-0.2-0.3-0.4-0.4c-0.2-0.1-0.5-0.1-0.8,0c-0.4,0.3-0.5,0.9-0.5,1.3
		c0.1,0.4,0.4,0.8,0.8,0.9l0.1,0c0.2,0,0.3,0,0.5-0.1c0.2-0.1,0.3-0.3,0.3-0.5C42.5,46.3,42.5,45.8,42.3,45.4z"/>
	<path class="st0" d="M44.2,46.1c-0.2-0.4-0.7-0.7-1-0.9c-0.4-0.2-0.8-0.4-1.2-0.5c-0.9-0.2-2,0-2.8,0.4c-0.2,0.1-0.1,0.8,0.1,0.7
		c0.8-0.4,1.8-0.6,2.7-0.5c0.4,0.1,0.8,0.3,1.2,0.5c0.2,0.1,0.4,0.2,0.5,0.4c0.1,0.1,0.3,0.3,0.5,0.3C44.2,46.3,44.2,46.1,44.2,46.1
		z"/>
	<path class="st5" d="M62.5,46.1c0.6-0.5,1.3-1,2.1-1.2c0.9-0.2,1.7,0.1,2.5,0.5l0.1,0.2c-0.3,0.9-1,1.7-2,1.8c-1,0.1-2.1-0.3-2.8-1
		l0-0.1L62.5,46.1z"/>
	<path class="st0" d="M64.2,45.4c0.1-0.2,0.2-0.3,0.4-0.4c0.2-0.1,0.5-0.1,0.8,0c0.4,0.3,0.5,0.9,0.5,1.3c-0.1,0.4-0.4,0.8-0.8,0.9
		l-0.1,0c-0.2,0-0.3,0-0.5-0.1c-0.2-0.1-0.3-0.3-0.3-0.5C64,46.2,64.1,45.8,64.2,45.4z"/>
	<path class="st0" d="M62.4,46.3c0.2,0,0.4-0.2,0.5-0.3c0.2-0.1,0.3-0.2,0.5-0.4c0.4-0.2,0.8-0.4,1.2-0.5c0.9-0.1,1.9,0,2.7,0.5
		c0.2,0.1,0.3-0.6,0.1-0.7c-0.8-0.4-1.9-0.6-2.8-0.4c-0.4,0.1-0.8,0.3-1.2,0.5c-0.2,0.1-0.4,0.3-0.6,0.4c-0.2,0.1-0.4,0.3-0.5,0.5
		C62.3,46.1,62.3,46.3,62.4,46.3z"/>
	<path class="st5" d="M53.5,52.1c-2.4,0.1-4.7-0.1-7-0.8c0.5,1.5,1.4,3.5,2.8,4.3c0.4,0.2,0.9,0.4,1.4,0.6c1.9,0.5,4.1,0.2,5.8-0.8
		c1.7-1,3.1-2.6,4-4.4C58.2,51.6,55.9,52,53.5,52.1z"/>
	<path class="st0" d="M52.9,38.6c0,2.6,0.2,5.3,0.6,7.9l0.2,0.2c0.6,0,1.3,0.1,1.6,0.7c0.3,0.6-0.3,1.2-0.8,1.5
		c-1.1,0.5-2.2,0.1-3.2-0.4c-0.3-0.1-0.5,0.2-0.2,0.4c1.3,0.7,3.2,1.2,4.4-0.1c0.4-0.5,0.6-1.2,0.2-1.7c-0.4-0.6-1.2-0.8-1.9-0.8
		l0.2,0.2c-0.4-2.6-0.6-5.2-0.5-7.8C53.4,38.3,52.9,38.3,52.9,38.6z"/>
	<path class="st0" d="M69.5,42.7l0-0.2c-0.2-1.3-1.1-2.2-2.1-2.9C67,39.2,66.5,39,66,38.7c-0.5-0.2-1-0.5-1.6-0.6
		c-0.3-0.1-0.6-0.1-0.8-0.2c-0.5,0-1,0.3-1.3,0.6c-0.4,0.4-0.7,1-0.8,1.5c-0.1,0.3-0.1,0.7,0.1,1c0.1,0.2,0.2,0.3,0.4,0.4
		c0.1,0.1,0.3,0.1,0.4,0.1c0.5,0.1,1.1,0.2,1.6,0.4c0.5,0.2,1.1,0.3,1.6,0.6c0.6,0.2,1.1,0.5,1.6,0.8c0.3,0.1,0.6,0.3,0.8,0.3
		c0.2,0,0.3,0.1,0.5,0.1C69.2,43.8,69.5,43.3,69.5,42.7z"/>
	<path class="st0" d="M36.6,42.6l0-0.2c0.3-1.2,1.3-2.1,2.4-2.7c0.5-0.3,1-0.5,1.5-0.7c0.5-0.2,1.1-0.3,1.6-0.4
		c0.3-0.1,0.6-0.1,0.8-0.1c0.5,0,0.9,0.4,1.2,0.7c0.3,0.4,0.6,1,0.6,1.6c0,0.3,0,0.7-0.2,1c-0.1,0.1-0.2,0.2-0.4,0.3
		c-0.1,0.1-0.3,0.1-0.4,0.1c-0.6,0.1-1.1,0.1-1.7,0.2c-0.6,0.1-1.1,0.2-1.6,0.4c-0.6,0.2-1.2,0.4-1.7,0.6c-0.3,0.1-0.6,0.2-0.9,0.3
		c-0.2,0-0.3,0.1-0.5,0.1C36.8,43.8,36.5,43.2,36.6,42.6z"/>
	<path class="st2" d="M76.1,45.4c-0.3,0-0.5,0-0.8,0l0-0.1l0,0l0,0c0.1-0.2,0.2-0.4,0.3-0.6c0.2-0.4,0.5-0.8,0.8-1.1
		c0.2-0.2,0.2-0.6,0-0.8c-0.2-0.2-0.6-0.2-0.8,0c-0.8,0.9-1.4,2-1.7,3.2l0,0c-0.2,0.9-0.3,1.7-0.2,2.6c0,0.3,0.2,0.6,0.6,0.6
		c0.3,0,0.6-0.2,0.6-0.6c-0.1-0.7,0-1.4,0.1-2c0.4,0,0.8,0,1.2,0c0.3,0,0.6-0.3,0.6-0.6C76.7,45.7,76.4,45.4,76.1,45.4z"/>
	<path class="st2" d="M28.5,47.5c0.3-0.1,0.5-0.1,0.8-0.2l0-0.1l0,0l0,0c-0.1-0.2-0.3-0.4-0.4-0.6c-0.3-0.4-0.6-0.6-1-0.9
		c-0.2-0.2-0.3-0.5-0.2-0.8c0.2-0.2,0.5-0.3,0.8-0.2c1,0.7,1.8,1.7,2.3,2.8l0,0c0.4,0.8,0.7,1.6,0.8,2.5c0,0.3-0.1,0.6-0.4,0.7
		c-0.3,0-0.6-0.1-0.7-0.4c-0.1-0.7-0.2-1.3-0.5-1.9c-0.4,0.1-0.8,0.1-1.1,0.2c-0.3,0.1-0.6-0.1-0.7-0.4C28,47.8,28.2,47.6,28.5,47.5
		z"/>
	<path class="st0" d="M72.3,51.9c-0.1,0.4-0.2,0.8-0.3,1.2c-0.2,0.9-0.4,1.8-0.7,2.6c-0.8-0.3-1.4-0.9-1.5-1.8
		c-0.1-0.6,0-1.2,0.1-1.8c0.1-0.7,0.1-1.4,0.2-2c0.2-2.7,0.3-5.4,0.2-8.1c0-0.7,0-1.4,0-2c0-0.6,0-1.3-0.1-1.9c-0.1-0.6-0.5-1-1-1.3
		c-0.4-0.3-0.9-0.6-1.3-0.9c-1.4-1.2-2.2-3-2.2-4.8c-0.4,0.6-0.9,1.1-1.4,1.6c-0.6,0.5-1.4,1.3-2.3,0.7c-0.7-0.5-0.7-1.4-1.1-2.1
		c-0.3-0.6-1-0.9-1.6-1.1c-0.7-0.2-1.5-0.2-2.2-0.2c-1,0-2,0.1-3,0.1c-1.7,0-3.4-0.1-5-0.8c-1.1-0.5-2.2-1.3-2.9-2.3
		c-0.2,1-0.5,2-1,3c-0.9,1.9-2.4,3.5-4.5,4.1c-1.6,0.5-3.5,0.3-4.8-0.7c0.4,1.5,0.4,3.1,0.2,4.6c-0.1,0.8-0.3,1.6-0.8,2.2
		c-0.4,0.4-0.9,0.6-1.4,0.4c0.1,1.2,0.1,2.4,0.2,3.6c0.1,2.4,0.3,4.7,0.4,7.1c0,0.6,0.1,1.2,0.1,1.8c0,0.5,0.2,1.1-0.2,1.5
		c-0.2,0.2-0.5,0.4-0.9,0.5c-0.2-0.6-0.4-1.2-0.6-1.8c-0.1-0.5-0.3-1-0.4-1.5c-0.5-1.9-0.8-3.8-1.1-5.8c-0.3-1.9-1-5-0.8-7
		c0.1-1.9-0.1-3.5,0.5-5.4c0.6-2.1,2.3-4.5,3.5-6.3c2.4-3.7,5.3-6,9.3-7.7l3.2-2c2.1-0.9,5.8-0.2,8.1-0.2c4.4,0,6,1.3,9.5,3.9
		c2,1.5,3.2,2.1,4.6,4.2l0.6,1.6c0.9,1.3,1.7,3.5,2.3,5c0.7,1.7,1.4,2.6,1.7,4.4l-0.2,1.8c0.1,0.6-1.1,0.6-1.1,1.2
		c0,0.2,0.1,0.5,0.1,0.7c0.1,0.8,0.4,1.5,0.5,2.3C73.6,45.5,73,48.7,72.3,51.9z"/>
	<path class="st1" d="M70.7,161.4L70.7,161.4c0.4,0,0.8-0.1,0.9-0.4c-0.9-0.3-1.8-0.5-2.7-0.6c-2.6-0.5-5.2-1-7.9-1.4
		c2.5-0.7,5.3,0.1,7.8-0.7c0.1,0,0.3-0.1,0.4-0.2c0.1-0.2,0-0.4-0.1-0.6c-0.2-0.1-0.4-0.2-0.6-0.2c-5.3-0.9-10.7-0.5-15.9-1.6
		c2.1-0.8,4.3-1.7,6.2-2.9c0.3-0.2,0.6-0.4,0.6-0.7c0-0.3-0.3-0.5-0.6-0.6c-0.3-0.1-0.6,0-0.9,0.1c-2.9,0.7-5.8,1.3-8.7,2
		c-2.4,0.6-4.9,0.8-7.3,0c-0.2-0.1-0.6,0.1-0.7,0.3c-0.6,1.4-1.2,2.9-1.8,4.3c-0.1,0.2-0.5,0.9-0.5,1.1c0.1,0.3,0.4,0.3,0.6,0.4
		c0.7,0.3,1.4,0.5,2.1,0.8c2.8,0.9,5.8,1.5,8.6,2.3c4.8,1.4,9.3,3.6,14.1,5.2c0.6,0.2,1.1,0.4,1.7,0.4c0.3,0,0.6,0,0.7-0.3
		c0.1-0.3-0.2-0.5-0.4-0.6c-2.5-1.4-5-2.8-7.5-4.2c2.9,0.4,5.9,0.8,8.8,1.2c1.2,0.2,2.3,0.3,3.5,0.1c-3.1-1.9-7.1-1.9-10.3-3.5
		c1.7,0.1,3.4,0.2,5.1,0.3C67.4,161.3,69,161.4,70.7,161.4z"/>
	<path class="st4" d="M46.6,152.9c-8.6-4.4-17.2-8.8-26.3-12c-2.3-0.8-4.6-1.5-7-2.1c1.4-2.9,2.8-5.7,4.2-8.6c1.9-4,3.8-8,5.6-12
		c1.8-4.1,3.5-8.1,5-12.3c1.5-4.1,3.1-8.3,3.9-12.6c0.4-2.2,0.7-4.4,0.7-6.6c0-1.9-0.3-3.9-1.6-5.3c-4-4.2-10.5,1-13.6,3.8
		c-4.8,4.5-8.6,10-12.3,15.4c-5.2,7.6-9.6,15.7-12.5,24.5c-1.5,4.6-3.3,9.8-2.4,14.7c0.4,2,1.1,3.9,2.1,5.6c2.2,3.7,5.5,6.4,9.1,8.6
		c3.8,2.2,7.9,3.9,12.1,5.3c8.6,2.9,17.8,4.4,26.9,4.3c1.1,0,2.3,0,3.4-0.1c0.2,0,0.5-0.1,0.6-0.3c1.3-3.1,2.2-6.3,2.5-9.6
		C47,153.3,46.8,153,46.6,152.9z"/>
	<path class="st6" d="M34.8,147.1c-2.7-1.2-5.5-2.4-8.3-3.5c-2.8-1.1-5.5-2.2-8.3-3.2c-1.5-0.6-3-1.1-4.5-1.6c1.3-2.5,2.5-5,3.7-7.5
		c1.4-2.9,2.8-5.9,4.2-8.8c0.8-1.7,1.5-3.3,2.3-5c0.1-0.2,0.1-0.5-0.2-0.6c-0.2-0.1-0.5-0.1-0.6,0.2c-1.3,3-2.7,6-4.1,8.9
		c-1.4,2.9-2.8,5.9-4.2,8.8c-0.8,1.6-1.6,3.3-2.5,4.9c-0.1,0.2-0.1,0.5,0.2,0.6c0.2,0.1,0.5,0.1,0.6-0.2c0.1-0.1,0.2-0.3,0.2-0.4
		c2.8,1,5.5,2,8.3,3.1c2.7,1.1,5.4,2.2,8.1,3.3c1.5,0.7,3.1,1.3,4.6,2c0.2,0.1,0.5,0.1,0.6-0.2C35,147.5,35,147.2,34.8,147.1z"/>
	<path class="st1" d="M29.3,161.4L29.3,161.4c-0.4,0-0.8-0.1-0.9-0.4c0.9-0.3,1.8-0.5,2.7-0.6c2.6-0.5,5.2-1,7.9-1.4
		c-2.5-0.7-5.3,0.1-7.8-0.7c-0.1,0-0.3-0.1-0.4-0.2c-0.1-0.2,0-0.4,0.1-0.6c0.2-0.1,0.4-0.2,0.6-0.2c5.3-0.9,10.7-0.5,15.9-1.6
		c-2.1-0.8-4.3-1.7-6.2-2.9c-0.3-0.2-0.6-0.4-0.6-0.7c0-0.3,0.3-0.5,0.6-0.6c0.3-0.1,0.6,0,0.9,0.1c2.9,0.7,5.8,1.3,8.7,2
		c2.4,0.6,4.9,0.8,7.3,0c0.2-0.1,0.6,0.1,0.7,0.3c0.6,1.4,1.2,2.9,1.8,4.3c0.1,0.2,0.5,0.9,0.5,1.1c-0.1,0.3-0.4,0.3-0.6,0.4
		c-0.7,0.3-1.4,0.5-2.1,0.8c-2.8,0.9-5.8,1.5-8.6,2.3c-4.8,1.4-9.3,3.6-14.1,5.2c-0.6,0.2-1.1,0.4-1.7,0.4c-0.3,0-0.6,0-0.7-0.3
		c-0.1-0.3,0.2-0.5,0.4-0.6c2.5-1.4,5-2.8,7.5-4.2c-2.9,0.4-5.9,0.8-8.8,1.2c-1.2,0.2-2.3,0.3-3.5,0.1c3.1-1.9,7.1-1.9,10.3-3.5
		c-1.7,0.1-3.4,0.2-5.1,0.3C32.6,161.3,31,161.4,29.3,161.4z"/>
	<path class="st4" d="M53.4,152.9c8.6-4.4,17.2-8.8,26.3-12c2.3-0.8,4.6-1.5,7-2.1c-1.4-2.9-2.8-5.7-4.2-8.6c-1.9-4-3.8-8-5.6-12
		c-1.8-4.1-3.5-8.1-5-12.3c-1.5-4.1-3.1-8.3-3.9-12.6c-0.4-2.2-0.7-4.4-0.7-6.6c0-1.9,0.3-3.9,1.6-5.3c4-4.2,10.5,1,13.6,3.8
		c4.8,4.5,8.6,10,12.3,15.4c5.2,7.6,9.6,15.7,12.5,24.5c1.5,4.6,3.3,9.8,2.4,14.7c-0.4,2-1.1,3.9-2.1,5.6c-2.2,3.7-5.5,6.4-9.1,8.6
		c-3.8,2.2-7.9,3.9-12.1,5.3c-8.6,2.9-17.8,4.4-26.9,4.3c-1.1,0-2.3,0-3.4-0.1c-0.2,0-0.5-0.1-0.6-0.3c-1.3-3.1-2.2-6.3-2.5-9.6
		C53,153.3,53.2,153,53.4,152.9z"/>
	<path class="st6" d="M65.2,147.1c2.7-1.2,5.5-2.4,8.3-3.5c2.8-1.1,5.5-2.2,8.3-3.2c1.5-0.6,3-1.1,4.5-1.6c-1.3-2.5-2.5-5-3.7-7.5
		c-1.4-2.9-2.8-5.9-4.2-8.8c-0.8-1.7-1.5-3.3-2.3-5c-0.1-0.2-0.1-0.5,0.2-0.6c0.2-0.1,0.5-0.1,0.6,0.2c1.3,3,2.7,6,4.1,8.9
		c1.4,2.9,2.8,5.9,4.2,8.8c0.8,1.6,1.6,3.3,2.5,4.9c0.1,0.2,0.1,0.5-0.2,0.6c-0.2,0.1-0.5,0.1-0.6-0.2c-0.1-0.1-0.2-0.3-0.2-0.4
		c-2.8,1-5.5,2-8.3,3.1c-2.7,1.1-5.4,2.2-8.1,3.3c-1.5,0.7-3.1,1.3-4.6,2c-0.2,0.1-0.5,0.1-0.6-0.2C65,147.5,65,147.2,65.2,147.1z"
		/>
	<path class="st7" d="M44,50.4c-0.3-1.2-1.4-1.7-2.6-1.9c-1-0.1-2.6-0.1-3.5,0.6c-0.7,0.5-1.1,1.4-0.7,2.3c0.1,0.1,0.1,0.3,0.2,0.4
		l0.2,0.2l0.2,0.2c0.5,0.4,1.1,0.6,1.7,0.6c1,0.1,2.2,0,3.2-0.3C43.7,52.1,44.3,51.3,44,50.4z"/>
	<path class="st7" d="M69.7,50.4c-0.3-1.2-1.4-1.7-2.6-1.9c-1-0.1-2.6-0.1-3.5,0.6c-0.7,0.5-1.1,1.4-0.7,2.3
		c0.1,0.1,0.1,0.3,0.2,0.4l0.2,0.2l0.2,0.2c0.5,0.4,1.1,0.6,1.7,0.6c1,0.1,2.2,0,3.2-0.3C69.3,52.1,70,51.3,69.7,50.4z"/>
</g>
</svg>
