<?xml version="1.0" encoding="utf-8"?>
<!-- Generator: Adobe Illustrator 22.1.0, SVG Export Plug-In . SVG Version: 6.00 Build 0)  -->
<svg version="1.1" id="Layer_1" xmlns="http://www.w3.org/2000/svg" xmlns:xlink="http://www.w3.org/1999/xlink" x="0px" y="0px"
	 viewBox="0 0 100 100" style="enable-background:new 0 0 100 100;" xml:space="preserve">
<style type="text/css">
	.st0{fill:#F5F5F5;}
	.st1{fill:#20120C;}
	.st2{fill:#B08561;}
	.st3{fill:#A17558;}
	.st4{fill:#FFFFFF;}
	.st5{fill:#FDDDDF;}
</style>
<rect x="-5" y="-3" class="st0" width="105" height="105"/>
<g>
	<path class="st1" d="M45.6,21.2c0,0,5.7,7.3,14.2,8c8.5,0.7,32.3,5,50.5,22.3c17.9,17,12.5,34.2,9.4,39.2
		c-16,25.4-57.7,13.9-79.2-17.4S45.6,21.2,45.6,21.2z"/>
	<path class="st1" d="M45.5,22.7c-3.4-1.8-10.8-2.9-15.1-2.4c-7.7,0.9-16.2,5.4-13.4,20C21,60.8,40.9,56.7,48.3,49
		C54.3,42.8,55.1,27.9,45.5,22.7z"/>
	<path class="st1" d="M32.2,16.4c0.7,5.1,3.7,8.9,8.8,8.2c7-1,11.6-6.6,10.9-11.7c-0.7-5.1-4.7-9.6-11.9-8.5
		C34.8,5,31.1,8.6,32.2,16.4z"/>
	<path class="st2" d="M40.8,39.7c0,0-2.3-13.7-13.8-13.7c-8.7,0-10.7,10.1-9.6,21c1.1,10.9,5.1,17.6,12.3,15.2
		c7.6-2.6,11.8-6.8,12.9-12.8c0,0,5.9-1.3,4.7-7.7C45.9,34.6,40.8,39.7,40.8,39.7z"/>
	<path class="st2" d="M29.6,72.9c0,0,3.1-4.4,1.5-12.2l10.7-12.8c0,0,2,19.3,8.3,22.4c0,0-3.8,15-11.2,16.3
		C31.5,87.9,30.9,78.4,29.6,72.9z"/>
	<path class="st3" d="M24.1,41.9c0,0-1.5,3.7-2.9,5c-1.4,1.3,1.4,2.3,2.6,2.4C25,49.4,24.1,41.9,24.1,41.9z"/>
	<path class="st4" d="M41,48.3c0.2,1.1,1.2,1.8,2.3,1.6c1.1-0.2,1.8-1.2,1.6-2.3c-0.2-1.1-1.2-1.8-2.3-1.6
		C41.5,46.2,40.8,47.2,41,48.3z"/>
	<path class="st3" d="M31.3,61.2c0,0,5-2.9,6.7-5.2c1.7-2.3,0.7,4.9-0.1,6.3c-1.3,2.5-3.9,4.4-6.6,5.8
		C31.3,68.2,31.9,65.1,31.3,61.2z"/>
	<path class="st5" d="M-11.3,103.8c4.1-10.5,28-26.1,40.9-30.9c0,0,0.8,7,5.5,7.1c5.8,0.1,12.1-4.2,15.1-9.7c0,0,30.2,2.7,58.5,35.2
		c0,0-17.9,26.3-39.2,29.9C-5.1,147.7-11.3,103.8-11.3,103.8z"/>
	<circle class="st1" cx="18.9" cy="41.4" r="1.3"/>
	<circle class="st1" cx="30.2" cy="41.3" r="1.3"/>
	<path class="st1" d="M32.7,35.2c-1-0.1-1.9-0.1-2.9,0c-0.7,0-1.2,0.9-1.1,1.5c0.1,0.8,0.8,1.1,1.5,1.1c0.7,0,1.5,0,2.2,0.1
		C34.1,38,34.4,35.4,32.7,35.2z"/>
	<path class="st1" d="M19.8,34.9c-0.7,0-1.5,0-2.2,0.2c-0.7,0.1-1.2,0.9-1,1.6c0.2,0.7,0.9,1.1,1.6,1c0.1,0,0.3-0.1,0.4-0.1
		c0.1,0,0.1,0,0.2,0c0,0,0,0,0.1,0c0.3,0,0.6,0,0.9,0c0.7,0,1.4-0.6,1.4-1.3C21,35.6,20.5,35,19.8,34.9z"/>
	<path class="st4" d="M20.8,52.2l7.3-0.7c0,0,0.1,4.2-3.4,4.6C21.4,56.3,20.8,52.2,20.8,52.2z"/>
</g>
</svg>
